<?xml version="1.0" encoding="utf-8"?>
<COLLADA xmlns="http://www.collada.org/2005/11/COLLADASchema" version="1.4.1" xmlns:xsi="http://www.w3.org/2001/XMLSchema-instance">
  <asset>
    <contributor>
      <author>Blender User</author>
      <authoring_tool>Blender 3.6.23 commit date:2025-06-16, commit time:11:52, hash:e467db79ca8c</authoring_tool>
    </contributor>
    <created>2026-06-26T00:04:35</created>
    <modified>2026-06-26T00:04:35</modified>
    <unit name="meter" meter="1"/>
    <up_axis>Z_UP</up_axis>
  </asset>
  <library_effects>
    <effect id="Material_005-effect">
      <profile_COMMON>
        <newparam sid="Task5_RedCross_png-surface">
          <surface type="2D">
            <init_from>Task5_RedCross_png</init_from>
          </surface>
        </newparam>
        <newparam sid="Task5_RedCross_png-sampler">
          <sampler2D>
            <source>Task5_RedCross_png-surface</source>
          </sampler2D>
        </newparam>
        <technique sid="common">
          <lambert>
            <emission>
              <color sid="emission">0 0 0 1</color>
            </emission>
            <diffuse>
              <texture texture="Task5_RedCross_png-sampler" texcoord="UVMap"/>
            </diffuse>
            <index_of_refraction>
              <float sid="ior">1.45</float>
            </index_of_refraction>
          </lambert>
        </technique>
      </profile_COMMON>
    </effect>
    <effect id="Material_006-effect">
      <profile_COMMON>
        <newparam sid="Task5_Warning_png-surface">
          <surface type="2D">
            <init_from>Task5_Warning_png</init_from>
          </surface>
        </newparam>
        <newparam sid="Task5_Warning_png-sampler">
          <sampler2D>
            <source>Task5_Warning_png-surface</source>
          </sampler2D>
        </newparam>
        <technique sid="common">
          <lambert>
            <emission>
              <color sid="emission">0 0 0 1</color>
            </emission>
            <diffuse>
              <texture texture="Task5_Warning_png-sampler" texcoord="UVMap"/>
            </diffuse>
            <index_of_refraction>
              <float sid="ior">1.45</float>
            </index_of_refraction>
          </lambert>
        </technique>
      </profile_COMMON>
    </effect>
    <effect id="Material_004-effect">
      <profile_COMMON>
        <newparam sid="Task5_Pill_png-surface">
          <surface type="2D">
            <init_from>Task5_Pill_png</init_from>
          </surface>
        </newparam>
        <newparam sid="Task5_Pill_png-sampler">
          <sampler2D>
            <source>Task5_Pill_png-surface</source>
          </sampler2D>
        </newparam>
        <technique sid="common">
          <lambert>
            <emission>
              <color sid="emission">0 0 0 1</color>
            </emission>
            <diffuse>
              <texture texture="Task5_Pill_png-sampler" texcoord="UVMap"/>
            </diffuse>
            <index_of_refraction>
              <float sid="ior">1.45</float>
            </index_of_refraction>
          </lambert>
        </technique>
      </profile_COMMON>
    </effect>
    <effect id="Material_003-effect">
      <profile_COMMON>
        <newparam sid="Task5_NutBolt_png-surface">
          <surface type="2D">
            <init_from>Task5_NutBolt_png</init_from>
          </surface>
        </newparam>
        <newparam sid="Task5_NutBolt_png-sampler">
          <sampler2D>
            <source>Task5_NutBolt_png-surface</source>
          </sampler2D>
        </newparam>
        <technique sid="common">
          <lambert>
            <emission>
              <color sid="emission">0 0 0 1</color>
            </emission>
            <diffuse>
              <texture texture="Task5_NutBolt_png-sampler" texcoord="UVMap"/>
            </diffuse>
            <index_of_refraction>
              <float sid="ior">1.45</float>
            </index_of_refraction>
          </lambert>
        </technique>
      </profile_COMMON>
    </effect>
    <effect id="Material_002-effect">
      <profile_COMMON>
        <newparam sid="Task5_BandAid_png-surface">
          <surface type="2D">
            <init_from>Task5_BandAid_png</init_from>
          </surface>
        </newparam>
        <newparam sid="Task5_BandAid_png-sampler">
          <sampler2D>
            <source>Task5_BandAid_png-surface</source>
          </sampler2D>
        </newparam>
        <technique sid="common">
          <lambert>
            <emission>
              <color sid="emission">0 0 0 1</color>
            </emission>
            <diffuse>
              <texture texture="Task5_BandAid_png-sampler" texcoord="UVMap"/>
            </diffuse>
            <index_of_refraction>
              <float sid="ior">1.45</float>
            </index_of_refraction>
          </lambert>
        </technique>
      </profile_COMMON>
    </effect>
    <effect id="Material_001-effect">
      <profile_COMMON>
        <newparam sid="Task5_Electric_png-surface">
          <surface type="2D">
            <init_from>Task5_Electric_png</init_from>
          </surface>
        </newparam>
        <newparam sid="Task5_Electric_png-sampler">
          <sampler2D>
            <source>Task5_Electric_png-surface</source>
          </sampler2D>
        </newparam>
        <technique sid="common">
          <lambert>
            <emission>
              <color sid="emission">0 0 0 1</color>
            </emission>
            <diffuse>
              <texture texture="Task5_Electric_png-sampler" texcoord="UVMap"/>
            </diffuse>
            <index_of_refraction>
              <float sid="ior">1.45</float>
            </index_of_refraction>
          </lambert>
        </technique>
      </profile_COMMON>
    </effect>
    <effect id="Material-effect">
      <profile_COMMON>
        <technique sid="common">
          <lambert>
            <emission>
              <color sid="emission">0 0 0 1</color>
            </emission>
            <diffuse>
              <color sid="diffuse">0.8 0.8 0.8 1</color>
            </diffuse>
            <index_of_refraction>
              <float sid="ior">1.45</float>
            </index_of_refraction>
          </lambert>
        </technique>
      </profile_COMMON>
    </effect>
  </library_effects>
  <library_images>
    <image id="Task5_BandAid_png" name="Task5_BandAid_png">
      <init_from>Task5_BandAid.png</init_from>
    </image>
    <image id="Task5_Electric_png" name="Task5_Electric_png">
      <init_from>Task5_Electric.png</init_from>
    </image>
    <image id="Task5_NutBolt_png" name="Task5_NutBolt_png">
      <init_from>Task5_NutBolt.png</init_from>
    </image>
    <image id="Task5_Pill_png" name="Task5_Pill_png">
      <init_from>Task5_Pill.png</init_from>
    </image>
    <image id="Task5_RedCross_png" name="Task5_RedCross_png">
      <init_from>Task5_RedCross.png</init_from>
    </image>
    <image id="Task5_Warning_png" name="Task5_Warning_png">
      <init_from>Task5_Warning.png</init_from>
    </image>
  </library_images>
  <library_materials>
    <material id="Material_005-material" name="Material.005">
      <instance_effect url="#Material_005-effect"/>
    </material>
    <material id="Material_006-material" name="Material.006">
      <instance_effect url="#Material_006-effect"/>
    </material>
    <material id="Material_004-material" name="Material.004">
      <instance_effect url="#Material_004-effect"/>
    </material>
    <material id="Material_003-material" name="Material.003">
      <instance_effect url="#Material_003-effect"/>
    </material>
    <material id="Material_002-material" name="Material.002">
      <instance_effect url="#Material_002-effect"/>
    </material>
    <material id="Material_001-material" name="Material.001">
      <instance_effect url="#Material_001-effect"/>
    </material>
    <material id="Material-material" name="Material">
      <instance_effect url="#Material-effect"/>
    </material>
  </library_materials>
  <library_geometries>
    <geometry id="Cube_006-mesh" name="Cube.006">
      <mesh>
        <source id="Cube_006-mesh-positions">
          <float_array id="Cube_006-mesh-positions-array" count="24">-1 -1 -1 -1 -1 1 -1 1 -1 -1 1 1 1 -1 -1 1 -1 1 1 1 -1 1 1 1</float_array>
          <technique_common>
            <accessor source="#Cube_006-mesh-positions-array" count="8" stride="3">
              <param name="X" type="float"/>
              <param name="Y" type="float"/>
              <param name="Z" type="float"/>
            </accessor>
          </technique_common>
        </source>
        <source id="Cube_006-mesh-normals">
          <float_array id="Cube_006-mesh-normals-array" count="18">-1 0 0 0 1 0 1 0 0 0 -1 0 0 0 -1 0 0 1</float_array>
          <technique_common>
            <accessor source="#Cube_006-mesh-normals-array" count="6" stride="3">
              <param name="X" type="float"/>
              <param name="Y" type="float"/>
              <param name="Z" type="float"/>
            </accessor>
          </technique_common>
        </source>
        <source id="Cube_006-mesh-map-0">
          <float_array id="Cube_006-mesh-map-0-array" count="72">1.003063 -2.010972 -0.003063201 -1.004845 -0.003063201 -2.010972 1.003063 -1.004845 -0.003063201 0.001281321 -0.003063201 -1.004845 1.003063 0.001281321 -0.003063201 1.007408 -0.003063201 0.001281321 1.003063 1.007408 -0.003063201 2.013534 -0.003063201 1.007408 -0.003063201 0.001281321 -1.00919 1.007408 -1.00919 0.001281321 2.00919 0.001281321 1.003063 1.007408 1.003063 0.001281321 1.003063 -2.010972 1.003063 -1.004845 -0.003063201 -1.004845 1.003063 -1.004845 1.003063 0.001281321 -0.003063201 0.001281321 1.003063 0.001281321 1.003063 1.007408 -0.003063201 1.007408 1.003063 1.007408 1.003063 2.013534 -0.003063201 2.013534 -0.003063201 0.001281321 -0.003063201 1.007408 -1.00919 1.007408 2.00919 0.001281321 2.00919 1.007408 1.003063 1.007408</float_array>
          <technique_common>
            <accessor source="#Cube_006-mesh-map-0-array" count="36" stride="2">
              <param name="S" type="float"/>
              <param name="T" type="float"/>
            </accessor>
          </technique_common>
        </source>
        <vertices id="Cube_006-mesh-vertices">
          <input semantic="POSITION" source="#Cube_006-mesh-positions"/>
        </vertices>
        <triangles material="Material_005-material" count="12">
          <input semantic="VERTEX" source="#Cube_006-mesh-vertices" offset="0"/>
          <input semantic="NORMAL" source="#Cube_006-mesh-normals" offset="1"/>
          <input semantic="TEXCOORD" source="#Cube_006-mesh-map-0" offset="2" set="0"/>
          <p>1 0 0 2 0 1 0 0 2 3 1 3 6 1 4 2 1 5 7 2 6 4 2 7 6 2 8 5 3 9 0 3 10 4 3 11 6 4 12 0 4 13 2 4 14 3 5 15 5 5 16 7 5 17 1 0 18 3 0 19 2 0 20 3 1 21 7 1 22 6 1 23 7 2 24 5 2 25 4 2 26 5 3 27 1 3 28 0 3 29 6 4 30 4 4 31 0 4 32 3 5 33 1 5 34 5 5 35</p>
        </triangles>
      </mesh>
    </geometry>
    <geometry id="Cube_005-mesh" name="Cube.005">
      <mesh>
        <source id="Cube_005-mesh-positions">
          <float_array id="Cube_005-mesh-positions-array" count="24">-1 -1 -1 -1 -1 1 -1 1 -1 -1 1 1 1 -1 -1 1 -1 1 1 1 -1 1 1 1</float_array>
          <technique_common>
            <accessor source="#Cube_005-mesh-positions-array" count="8" stride="3">
              <param name="X" type="float"/>
              <param name="Y" type="float"/>
              <param name="Z" type="float"/>
            </accessor>
          </technique_common>
        </source>
        <source id="Cube_005-mesh-normals">
          <float_array id="Cube_005-mesh-normals-array" count="18">-1 0 0 0 1 0 1 0 0 0 -1 0 0 0 -1 0 0 1</float_array>
          <technique_common>
            <accessor source="#Cube_005-mesh-normals-array" count="6" stride="3">
              <param name="X" type="float"/>
              <param name="Y" type="float"/>
              <param name="Z" type="float"/>
            </accessor>
          </technique_common>
        </source>
        <source id="Cube_005-mesh-map-0">
          <float_array id="Cube_005-mesh-map-0-array" count="72">6.06616e-4 3.005763 1.005383 1.994496 1.00738 3.00127 -0.001390099 1.998989 1.003387 0.9877226 1.005383 1.994496 -0.003386974 0.9922155 1.00139 -0.01905065 1.003387 0.9877226 -0.005383789 -0.01455789 0.999393 -1.025825 1.00139 -0.01905065 1.003387 0.9877226 2.008163 -0.02354365 2.01016 0.9832298 -1.01016 0.9967083 -0.005383789 -0.01455789 -0.003386974 0.9922155 6.06616e-4 3.005763 -0.001390099 1.998989 1.005383 1.994496 -0.001390099 1.998989 -0.003386974 0.9922155 1.003387 0.9877226 -0.003386974 0.9922155 -0.005383789 -0.01455789 1.00139 -0.01905065 -0.005383789 -0.01455789 -0.007380545 -1.021332 0.999393 -1.025825 1.003387 0.9877226 1.00139 -0.01905065 2.008163 -0.02354365 -1.01016 0.9967083 -1.012157 -0.01006513 -0.005383789 -0.01455789</float_array>
          <technique_common>
            <accessor source="#Cube_005-mesh-map-0-array" count="36" stride="2">
              <param name="S" type="float"/>
              <param name="T" type="float"/>
            </accessor>
          </technique_common>
        </source>
        <vertices id="Cube_005-mesh-vertices">
          <input semantic="POSITION" source="#Cube_005-mesh-positions"/>
        </vertices>
        <triangles material="Material_006-material" count="12">
          <input semantic="VERTEX" source="#Cube_005-mesh-vertices" offset="0"/>
          <input semantic="NORMAL" source="#Cube_005-mesh-normals" offset="1"/>
          <input semantic="TEXCOORD" source="#Cube_005-mesh-map-0" offset="2" set="0"/>
          <p>1 0 0 2 0 1 0 0 2 3 1 3 6 1 4 2 1 5 7 2 6 4 2 7 6 2 8 5 3 9 0 3 10 4 3 11 6 4 12 0 4 13 2 4 14 3 5 15 5 5 16 7 5 17 1 0 18 3 0 19 2 0 20 3 1 21 7 1 22 6 1 23 7 2 24 5 2 25 4 2 26 5 3 27 1 3 28 0 3 29 6 4 30 4 4 31 0 4 32 3 5 33 1 5 34 5 5 35</p>
        </triangles>
      </mesh>
    </geometry>
    <geometry id="Cylinder_001-mesh" name="Cylinder.001">
      <mesh>
        <source id="Cylinder_001-mesh-positions">
          <float_array id="Cylinder_001-mesh-positions-array" count="192">0 1 -1 0 1 1 0.1950903 0.9807853 -1 0.1950903 0.9807853 1 0.3826835 0.9238795 -1 0.3826835 0.9238795 1 0.5555703 0.8314696 -1 0.5555703 0.8314696 1 0.7071068 0.7071068 -1 0.7071068 0.7071068 1 0.8314696 0.5555703 -1 0.8314696 0.5555703 1 0.9238795 0.3826835 -1 0.9238795 0.3826835 1 0.9807853 0.1950903 -1 0.9807853 0.1950903 1 1 0 -1 1 0 1 0.9807853 -0.1950903 -1 0.9807853 -0.1950903 1 0.9238795 -0.3826835 -1 0.9238795 -0.3826835 1 0.8314696 -0.5555703 -1 0.8314696 -0.5555703 1 0.7071068 -0.7071068 -1 0.7071068 -0.7071068 1 0.5555703 -0.8314696 -1 0.5555703 -0.8314696 1 0.3826835 -0.9238795 -1 0.3826835 -0.9238795 1 0.1950903 -0.9807853 -1 0.1950903 -0.9807853 1 0 -1 -1 0 -1 1 -0.1950903 -0.9807853 -1 -0.1950903 -0.9807853 1 -0.3826835 -0.9238795 -1 -0.3826835 -0.9238795 1 -0.5555703 -0.8314696 -1 -0.5555703 -0.8314696 1 -0.7071068 -0.7071068 -1 -0.7071068 -0.7071068 1 -0.8314696 -0.5555703 -1 -0.8314696 -0.5555703 1 -0.9238795 -0.3826835 -1 -0.9238795 -0.3826835 1 -0.9807853 -0.1950903 -1 -0.9807853 -0.1950903 1 -1 0 -1 -1 0 1 -0.9807853 0.1950903 -1 -0.9807853 0.1950903 1 -0.9238795 0.3826835 -1 -0.9238795 0.3826835 1 -0.8314696 0.5555703 -1 -0.8314696 0.5555703 1 -0.7071068 0.7071068 -1 -0.7071068 0.7071068 1 -0.5555703 0.8314696 -1 -0.5555703 0.8314696 1 -0.3826835 0.9238795 -1 -0.3826835 0.9238795 1 -0.1950903 0.9807853 -1 -0.1950903 0.9807853 1</float_array>
          <technique_common>
            <accessor source="#Cylinder_001-mesh-positions-array" count="64" stride="3">
              <param name="X" type="float"/>
              <param name="Y" type="float"/>
              <param name="Z" type="float"/>
            </accessor>
          </technique_common>
        </source>
        <source id="Cylinder_001-mesh-normals">
          <float_array id="Cylinder_001-mesh-normals-array" count="165">0.09801727 0.9951847 0 0.2902846 0.9569405 0 0.4713967 0.8819213 0 0.6343935 0.7730103 0 0.7730105 0.6343934 0 0.8819212 0.471397 0 0.9569404 0.2902846 0 0.9951847 0.09801727 0 0.9951847 -0.09801727 0 0.9569404 -0.2902846 0 0.8819215 -0.4713965 0 0.7730105 -0.6343934 0 0.6343932 -0.7730106 0 0.4713967 -0.8819213 0 0.2902847 -0.9569404 0 0.09801727 -0.9951847 0 -0.09801727 -0.9951847 0 -0.2902846 -0.9569405 0 -0.4713967 -0.8819213 0 -0.6343935 -0.7730103 0 -0.7730105 -0.6343934 0 -0.8819212 -0.471397 0 -0.9569404 -0.2902846 0 -0.9951847 -0.09801727 0 -0.9951847 0.09801727 0 -0.9569404 0.2902846 0 -0.8819215 0.4713965 0 -0.7730105 0.6343934 0 -0.6343932 0.7730106 0 -0.4713967 0.8819213 0 0 0 1 -0.2902847 0.9569404 0 -0.09801727 0.9951847 0 0 0 -1 0.2902847 0.9569404 0 0.6343932 0.7730106 0 0.8819215 0.4713965 0 0.8819212 -0.471397 0 0.6343935 -0.7730103 0 0.2902846 -0.9569405 0 -0.2902847 -0.9569404 0 -0.6343932 -0.7730106 0 -0.8819215 -0.4713965 0 -0.8819212 0.471397 0 -0.6343935 0.7730103 0 2.68447e-6 0 1 -0.2902846 0.9569405 0 7.18515e-7 0 -1 -1.02308e-6 0 -1 -3.88857e-7 0 -1 3.59258e-7 0 -1 -7.18515e-7 0 -1 1.02308e-6 0 -1 3.88857e-7 0 -1 -3.59258e-7 0 -1</float_array>
          <technique_common>
            <accessor source="#Cylinder_001-mesh-normals-array" count="55" stride="3">
              <param name="X" type="float"/>
              <param name="Y" type="float"/>
              <param name="Z" type="float"/>
            </accessor>
          </technique_common>
        </source>
        <source id="Cylinder_001-mesh-map-0">
          <float_array id="Cylinder_001-mesh-map-0-array" count="744">2.092525 2.086933 2.026326 1.027741 2.092525 1.027741 2.026326 2.086933 1.960126 1.027741 2.026326 1.027741 1.960126 2.086933 1.893927 1.027741 1.960126 1.027741 1.893927 2.086933 1.827727 1.027741 1.893927 1.027741 1.827727 2.086933 1.761528 1.027741 1.827727 1.027741 1.761528 2.086933 1.695328 1.027741 1.761528 1.027741 1.695328 2.086933 1.629129 1.027741 1.695328 1.027741 1.629129 2.086933 1.562929 1.027741 1.629129 1.027741 1.562929 2.086933 1.49673 1.027741 1.562929 1.027741 1.49673 2.086933 1.43053 1.027741 1.49673 1.027741 1.43053 2.086933 1.364331 1.027741 1.43053 1.027741 1.364331 2.086933 1.298131 1.027741 1.364331 1.027741 1.298131 2.086933 1.231932 1.027741 1.298131 1.027741 1.231932 2.086933 1.165732 1.027741 1.231932 1.027741 1.165732 2.086933 1.099533 1.027741 1.165732 1.027741 1.099533 2.086933 1.033333 1.027741 1.099533 1.027741 1.033333 2.086933 0.9671338 1.027741 1.033333 1.027741 0.9671338 2.086933 0.9009343 1.027741 0.9671338 1.027741 0.9009343 2.086933 0.8347347 1.027741 0.9009343 1.027741 0.8347347 2.086933 0.7685353 1.027741 0.8347347 1.027741 0.7685353 2.086933 0.7023357 1.027741 0.7685353 1.027741 0.7023357 2.086933 0.6361363 1.027741 0.7023357 1.027741 0.6361363 2.086933 0.5699368 1.027741 0.6361363 1.027741 0.5699368 2.086933 0.5037372 1.027741 0.5699368 1.027741 0.5037372 2.086933 0.4375377 1.027741 0.5037372 1.027741 0.4375377 2.086933 0.3713382 1.027741 0.4375377 1.027741 0.3713382 2.086933 0.3051387 1.027741 0.3713382 1.027741 0.3051387 2.086933 0.2389392 1.027741 0.3051387 1.027741 0.2389392 2.086933 0.1727396 1.027741 0.2389392 1.027741 0.1727396 2.086933 0.1065402 1.027741 0.1727396 1.027741 0.3091763 0.02843368 0.9734488 0.3035843 0.6982982 0.9678569 0.1065402 2.086933 0.0403406 1.027741 0.1065402 1.027741 0.0403406 2.086933 -0.02585887 1.027741 0.0403406 1.027741 1.662116 -4.97888e-4 1.064286 0.3989589 1.463743 0.9967886 2.092525 2.086933 2.026326 2.086933 2.026326 1.027741 2.026326 2.086933 1.960126 2.086933 1.960126 1.027741 1.960126 2.086933 1.893927 2.086933 1.893927 1.027741 1.893927 2.086933 1.827727 2.086933 1.827727 1.027741 1.827727 2.086933 1.761528 2.086933 1.761528 1.027741 1.761528 2.086933 1.695328 2.086933 1.695328 1.027741 1.695328 2.086933 1.629129 2.086933 1.629129 1.027741 1.629129 2.086933 1.562929 2.086933 1.562929 1.027741 1.562929 2.086933 1.49673 2.086933 1.49673 1.027741 1.49673 2.086933 1.43053 2.086933 1.43053 1.027741 1.43053 2.086933 1.364331 2.086933 1.364331 1.027741 1.364331 2.086933 1.298131 2.086933 1.298131 1.027741 1.298131 2.086933 1.231932 2.086933 1.231932 1.027741 1.231932 2.086933 1.165732 2.086933 1.165732 1.027741 1.165732 2.086933 1.099533 2.086933 1.099533 1.027741 1.099533 2.086933 1.033333 2.086933 1.033333 1.027741 1.033333 2.086933 0.9671338 2.086933 0.9671338 1.027741 0.9671338 2.086933 0.9009343 2.086933 0.9009343 1.027741 0.9009343 2.086933 0.8347347 2.086933 0.8347347 1.027741 0.8347347 2.086933 0.7685353 2.086933 0.7685353 1.027741 0.7685353 2.086933 0.7023357 2.086933 0.7023357 1.027741 0.7023357 2.086933 0.6361363 2.086933 0.6361363 1.027741 0.6361363 2.086933 0.5699368 2.086933 0.5699368 1.027741 0.5699368 2.086933 0.5037372 2.086933 0.5037372 1.027741 0.5037372 2.086933 0.4375377 2.086933 0.4375377 1.027741 0.4375377 2.086933 0.3713382 2.086933 0.3713382 1.027741 0.3713382 2.086933 0.3051387 2.086933 0.3051387 1.027741 0.3051387 2.086933 0.2389392 2.086933 0.2389392 1.027741 0.2389392 2.086933 0.1727396 2.086933 0.1727396 1.027741 0.1727396 2.086933 0.1065402 2.086933 0.1065402 1.027741 0.6982982 0.9678569 0.6029235 0.9967886 0.5037372 1.006557 0.5037372 1.006557 0.4045509 0.9967886 0.6982982 0.9678569 0.4045509 0.9967886 0.3091763 0.9678569 0.6982982 0.9678569 0.3091763 0.9678569 0.2212785 0.9208746 0.1442354 0.857647 0.1442354 0.857647 0.08100783 0.780604 0.0340256 0.6927062 0.0340256 0.6927062 0.005093991 0.5973316 -0.00467503 0.4981452 -0.00467503 0.4981452 0.005093991 0.3989589 0.0340256 0.6927062 0.005093991 0.3989589 0.0340256 0.3035843 0.0340256 0.6927062 0.0340256 0.3035843 0.08100783 0.2156865 0.1442354 0.1386435 0.1442354 0.1386435 0.2212785 0.0754159 0.3091763 0.02843368 0.3091763 0.02843368 0.4045509 -4.97888e-4 0.6982982 0.02843368 0.4045509 -4.97888e-4 0.5037372 -0.01026695 0.6982982 0.02843368 0.5037372 -0.01026695 0.6029235 -4.97888e-4 0.6982982 0.02843368 0.6982982 0.02843368 0.7861959 0.0754159 0.863239 0.1386435 0.863239 0.1386435 0.9264666 0.2156865 0.9734488 0.3035843 0.9734488 0.3035843 1.00238 0.3989589 0.9734488 0.6927062 1.00238 0.3989589 1.012149 0.4981452 0.9734488 0.6927062 1.012149 0.4981452 1.00238 0.5973316 0.9734488 0.6927062 0.9734488 0.6927062 0.9264666 0.780604 0.863239 0.857647 0.863239 0.857647 0.7861959 0.9208746 0.6982982 0.9678569 0.3091763 0.9678569 0.1442354 0.857647 0.6982982 0.9678569 0.1442354 0.857647 0.0340256 0.6927062 0.6982982 0.9678569 0.0340256 0.3035843 0.1442354 0.1386435 0.0340256 0.6927062 0.1442354 0.1386435 0.3091763 0.02843368 0.0340256 0.6927062 0.6982982 0.02843368 0.863239 0.1386435 0.3091763 0.02843368 0.863239 0.1386435 0.9734488 0.3035843 0.3091763 0.02843368 0.9734488 0.6927062 0.863239 0.857647 0.9734488 0.3035843 0.863239 0.857647 0.6982982 0.9678569 0.9734488 0.3035843 0.6982982 0.9678569 0.0340256 0.6927062 0.3091763 0.02843368 0.1065402 2.086933 0.0403406 2.086933 0.0403406 1.027741 0.0403406 2.086933 -0.02585887 2.086933 -0.02585887 1.027741 1.463743 0.9967886 1.562929 1.006557 1.662116 0.9967886 1.662116 0.9967886 1.75749 0.9678569 1.845388 0.9208746 1.845388 0.9208746 1.922431 0.857647 1.985659 0.780604 1.985659 0.780604 2.032641 0.6927062 2.061573 0.5973316 2.061573 0.5973316 2.071341 0.4981452 2.061573 0.3989589 2.061573 0.3989589 2.032641 0.3035843 1.985659 0.2156865 1.985659 0.2156865 1.922431 0.1386435 1.845388 0.0754159 1.845388 0.0754159 1.75749 0.02843368 1.662116 -4.97888e-4 1.662116 -4.97888e-4 1.562929 -0.01026695 1.463743 -4.97888e-4 1.463743 -4.97888e-4 1.368368 0.02843368 1.280471 0.0754159 1.280471 0.0754159 1.203428 0.1386435 1.1402 0.2156865 1.1402 0.2156865 1.093218 0.3035843 1.064286 0.3989589 1.064286 0.3989589 1.054517 0.4981452 1.064286 0.5973316 1.064286 0.5973316 1.093218 0.6927062 1.1402 0.780604 1.1402 0.780604 1.203428 0.857647 1.280471 0.9208746 1.280471 0.9208746 1.368368 0.9678569 1.463743 0.9967886 1.463743 0.9967886 1.662116 0.9967886 2.061573 0.5973316 1.662116 0.9967886 1.845388 0.9208746 2.061573 0.5973316 1.845388 0.9208746 1.985659 0.780604 2.061573 0.5973316 2.061573 0.5973316 2.061573 0.3989589 1.662116 -4.97888e-4 2.061573 0.3989589 1.985659 0.2156865 1.662116 -4.97888e-4 1.985659 0.2156865 1.845388 0.0754159 1.662116 -4.97888e-4 1.662116 -4.97888e-4 1.463743 -4.97888e-4 1.064286 0.3989589 1.463743 -4.97888e-4 1.280471 0.0754159 1.064286 0.3989589 1.280471 0.0754159 1.1402 0.2156865 1.064286 0.3989589 1.064286 0.3989589 1.064286 0.5973316 1.463743 0.9967886 1.064286 0.5973316 1.1402 0.780604 1.463743 0.9967886 1.1402 0.780604 1.280471 0.9208746 1.463743 0.9967886 1.463743 0.9967886 2.061573 0.5973316 1.662116 -4.97888e-4</float_array>
          <technique_common>
            <accessor source="#Cylinder_001-mesh-map-0-array" count="372" stride="2">
              <param name="S" type="float"/>
              <param name="T" type="float"/>
            </accessor>
          </technique_common>
        </source>
        <vertices id="Cylinder_001-mesh-vertices">
          <input semantic="POSITION" source="#Cylinder_001-mesh-positions"/>
        </vertices>
        <triangles material="Material_004-material" count="124">
          <input semantic="VERTEX" source="#Cylinder_001-mesh-vertices" offset="0"/>
          <input semantic="NORMAL" source="#Cylinder_001-mesh-normals" offset="1"/>
          <input semantic="TEXCOORD" source="#Cylinder_001-mesh-map-0" offset="2" set="0"/>
          <p>1 0 0 2 0 1 0 0 2 3 1 3 4 1 4 2 1 5 5 2 6 6 2 7 4 2 8 7 3 9 8 3 10 6 3 11 9 4 12 10 4 13 8 4 14 11 5 15 12 5 16 10 5 17 13 6 18 14 6 19 12 6 20 15 7 21 16 7 22 14 7 23 17 8 24 18 8 25 16 8 26 19 9 27 20 9 28 18 9 29 21 10 30 22 10 31 20 10 32 23 11 33 24 11 34 22 11 35 25 12 36 26 12 37 24 12 38 27 13 39 28 13 40 26 13 41 29 14 42 30 14 43 28 14 44 31 15 45 32 15 46 30 15 47 33 16 48 34 16 49 32 16 50 35 17 51 36 17 52 34 17 53 37 18 54 38 18 55 36 18 56 39 19 57 40 19 58 38 19 59 41 20 60 42 20 61 40 20 62 43 21 63 44 21 64 42 21 65 45 22 66 46 22 67 44 22 68 47 23 69 48 23 70 46 23 71 49 24 72 50 24 73 48 24 74 51 25 75 52 25 76 50 25 77 53 26 78 54 26 79 52 26 80 55 27 81 56 27 82 54 27 83 57 28 84 58 28 85 56 28 86 59 29 87 60 29 88 58 29 89 37 30 90 21 30 91 5 30 92 61 31 93 62 31 94 60 31 95 63 32 96 0 32 97 62 32 98 30 33 99 46 33 100 62 33 101 1 0 102 3 0 103 2 0 104 3 34 105 5 34 106 4 34 107 5 2 108 7 2 109 6 2 110 7 35 111 9 35 112 8 35 113 9 4 114 11 4 115 10 4 116 11 36 117 13 36 118 12 36 119 13 6 120 15 6 121 14 6 122 15 7 123 17 7 124 16 7 125 17 8 126 19 8 127 18 8 128 19 9 129 21 9 130 20 9 131 21 37 132 23 37 133 22 37 134 23 11 135 25 11 136 24 11 137 25 38 138 27 38 139 26 38 140 27 13 141 29 13 142 28 13 143 29 39 144 31 39 145 30 39 146 31 15 147 33 15 148 32 15 149 33 16 150 35 16 151 34 16 152 35 40 153 37 40 154 36 40 155 37 18 156 39 18 157 38 18 158 39 41 159 41 41 160 40 41 161 41 20 162 43 20 163 42 20 164 43 42 165 45 42 166 44 42 167 45 22 168 47 22 169 46 22 170 47 23 171 49 23 172 48 23 173 49 24 174 51 24 175 50 24 176 51 25 177 53 25 178 52 25 179 53 43 180 55 43 181 54 43 182 55 27 183 57 27 184 56 27 185 57 44 186 59 44 187 58 44 188 59 29 189 61 29 190 60 29 191 5 30 192 3 30 193 1 30 194 1 30 195 63 30 196 5 30 197 63 30 198 61 30 199 5 30 200 61 30 201 59 30 202 57 30 203 57 30 204 55 30 205 53 30 206 53 30 207 51 30 208 49 30 209 49 30 210 47 30 211 53 30 212 47 30 213 45 30 214 53 30 215 45 30 216 43 30 217 41 30 218 41 30 219 39 30 220 37 30 221 37 30 222 35 30 223 29 30 224 35 30 225 33 30 226 29 30 227 33 30 228 31 30 229 29 30 230 29 30 231 27 30 232 25 30 233 25 30 234 23 30 235 21 30 236 21 30 237 19 30 238 13 30 239 19 45 240 17 45 241 13 45 242 17 30 243 15 30 244 13 30 245 13 30 246 11 30 247 9 30 248 9 30 249 7 30 250 5 30 251 61 30 252 57 30 253 5 30 254 57 30 255 53 30 256 5 30 257 45 30 258 41 30 259 53 30 260 41 30 261 37 30 262 53 30 263 29 30 264 25 30 265 37 30 266 25 30 267 21 30 268 37 30 269 13 30 270 9 30 271 21 30 272 9 30 273 5 30 274 21 30 275 5 30 276 53 30 277 37 30 278 61 46 279 63 46 280 62 46 281 63 32 282 1 32 283 0 32 284 62 33 285 0 33 286 2 33 287 2 33 288 4 33 289 6 33 290 6 33 291 8 33 292 10 33 293 10 33 294 12 33 295 14 33 296 14 33 297 16 33 298 18 33 299 18 33 300 20 33 301 22 33 302 22 33 303 24 33 304 26 33 305 26 33 306 28 33 307 30 33 308 30 33 309 32 33 310 34 33 311 34 33 312 36 33 313 38 33 314 38 33 315 40 33 316 42 33 317 42 33 318 44 33 319 46 33 320 46 33 321 48 33 322 50 33 323 50 33 324 52 33 325 54 33 326 54 33 327 56 33 328 58 33 329 58 33 330 60 33 331 62 33 332 62 33 333 2 33 334 14 33 335 2 47 336 6 47 337 14 47 338 6 48 339 10 48 340 14 48 341 14 49 342 18 49 343 30 49 344 18 50 345 22 50 346 30 50 347 22 33 348 26 33 349 30 33 350 30 33 351 34 33 352 46 33 353 34 51 354 38 51 355 46 51 356 38 52 357 42 52 358 46 52 359 46 53 360 50 53 361 62 53 362 50 54 363 54 54 364 62 54 365 54 33 366 58 33 367 62 33 368 62 33 369 14 33 370 30 33 371</p>
        </triangles>
      </mesh>
    </geometry>
    <geometry id="Cylinder-mesh" name="Cylinder">
      <mesh>
        <source id="Cylinder-mesh-positions">
          <float_array id="Cylinder-mesh-positions-array" count="192">0 1 -1 0 1 1 0.1950903 0.9807853 -1 0.1950903 0.9807853 1 0.3826835 0.9238795 -1 0.3826835 0.9238795 1 0.5555703 0.8314696 -1 0.5555703 0.8314696 1 0.7071068 0.7071068 -1 0.7071068 0.7071068 1 0.8314696 0.5555703 -1 0.8314696 0.5555703 1 0.9238795 0.3826835 -1 0.9238795 0.3826835 1 0.9807853 0.1950903 -1 0.9807853 0.1950903 1 1 0 -1 1 0 1 0.9807853 -0.1950903 -1 0.9807853 -0.1950903 1 0.9238795 -0.3826835 -1 0.9238795 -0.3826835 1 0.8314696 -0.5555703 -1 0.8314696 -0.5555703 1 0.7071068 -0.7071068 -1 0.7071068 -0.7071068 1 0.5555703 -0.8314696 -1 0.5555703 -0.8314696 1 0.3826835 -0.9238795 -1 0.3826835 -0.9238795 1 0.1950903 -0.9807853 -1 0.1950903 -0.9807853 1 0 -1 -1 0 -1 1 -0.1950903 -0.9807853 -1 -0.1950903 -0.9807853 1 -0.3826835 -0.9238795 -1 -0.3826835 -0.9238795 1 -0.5555703 -0.8314696 -1 -0.5555703 -0.8314696 1 -0.7071068 -0.7071068 -1 -0.7071068 -0.7071068 1 -0.8314696 -0.5555703 -1 -0.8314696 -0.5555703 1 -0.9238795 -0.3826835 -1 -0.9238795 -0.3826835 1 -0.9807853 -0.1950903 -1 -0.9807853 -0.1950903 1 -1 0 -1 -1 0 1 -0.9807853 0.1950903 -1 -0.9807853 0.1950903 1 -0.9238795 0.3826835 -1 -0.9238795 0.3826835 1 -0.8314696 0.5555703 -1 -0.8314696 0.5555703 1 -0.7071068 0.7071068 -1 -0.7071068 0.7071068 1 -0.5555703 0.8314696 -1 -0.5555703 0.8314696 1 -0.3826835 0.9238795 -1 -0.3826835 0.9238795 1 -0.1950903 0.9807853 -1 -0.1950903 0.9807853 1</float_array>
          <technique_common>
            <accessor source="#Cylinder-mesh-positions-array" count="64" stride="3">
              <param name="X" type="float"/>
              <param name="Y" type="float"/>
              <param name="Z" type="float"/>
            </accessor>
          </technique_common>
        </source>
        <source id="Cylinder-mesh-normals">
          <float_array id="Cylinder-mesh-normals-array" count="165">0.09801727 0.9951847 0 0.2902846 0.9569405 0 0.4713967 0.8819213 0 0.6343935 0.7730103 0 0.7730105 0.6343934 0 0.8819212 0.471397 0 0.9569404 0.2902846 0 0.9951847 0.09801727 0 0.9951847 -0.09801727 0 0.9569404 -0.2902846 0 0.8819215 -0.4713965 0 0.7730105 -0.6343934 0 0.6343932 -0.7730106 0 0.4713967 -0.8819213 0 0.2902847 -0.9569404 0 0.09801727 -0.9951847 0 -0.09801727 -0.9951847 0 -0.2902846 -0.9569405 0 -0.4713967 -0.8819213 0 -0.6343935 -0.7730103 0 -0.7730105 -0.6343934 0 -0.8819212 -0.471397 0 -0.9569404 -0.2902846 0 -0.9951847 -0.09801727 0 -0.9951847 0.09801727 0 -0.9569404 0.2902846 0 -0.8819215 0.4713965 0 -0.7730105 0.6343934 0 -0.6343932 0.7730106 0 -0.4713967 0.8819213 0 0 0 1 -0.2902847 0.9569404 0 -0.09801727 0.9951847 0 0 0 -1 0.2902847 0.9569404 0 0.6343932 0.7730106 0 0.8819215 0.4713965 0 0.8819212 -0.471397 0 0.6343935 -0.7730103 0 0.2902846 -0.9569405 0 -0.2902847 -0.9569404 0 -0.6343932 -0.7730106 0 -0.8819215 -0.4713965 0 -0.8819212 0.471397 0 -0.6343935 0.7730103 0 2.68447e-6 0 1 -0.2902846 0.9569405 0 7.18515e-7 0 -1 -1.02308e-6 0 -1 -3.88857e-7 0 -1 3.59258e-7 0 -1 -7.18515e-7 0 -1 1.02308e-6 0 -1 3.88857e-7 0 -1 -3.59258e-7 0 -1</float_array>
          <technique_common>
            <accessor source="#Cylinder-mesh-normals-array" count="55" stride="3">
              <param name="X" type="float"/>
              <param name="Y" type="float"/>
              <param name="Z" type="float"/>
            </accessor>
          </technique_common>
        </source>
        <source id="Cylinder-mesh-map-0">
          <float_array id="Cylinder-mesh-map-0-array" count="744">2.079448 2.081225 2.013652 1.028486 2.079448 1.028486 2.013652 2.081225 1.947856 1.028486 2.013652 1.028486 1.947856 2.081225 1.88206 1.028486 1.947856 1.028486 1.88206 2.081225 1.816263 1.028486 1.88206 1.028486 1.816263 2.081225 1.750467 1.028486 1.816263 1.028486 1.750467 2.081225 1.684671 1.028486 1.750467 1.028486 1.684671 2.081225 1.618875 1.028486 1.684671 1.028486 1.618875 2.081225 1.553079 1.028486 1.618875 1.028486 1.553079 2.081225 1.487282 1.028486 1.553079 1.028486 1.487282 2.081225 1.421486 1.028486 1.487282 1.028486 1.421486 2.081225 1.35569 1.028486 1.421486 1.028486 1.35569 2.081225 1.289894 1.028486 1.35569 1.028486 1.289894 2.081225 1.224098 1.028486 1.289894 1.028486 1.224098 2.081225 1.158301 1.028486 1.224098 1.028486 1.158301 2.081225 1.092505 1.028486 1.158301 1.028486 1.092505 2.081225 1.026709 1.028486 1.092505 1.028486 1.026709 2.081225 0.9609129 1.028486 1.026709 1.028486 0.9609129 2.081225 0.8951167 1.028486 0.9609129 1.028486 0.8951167 2.081225 0.8293205 1.028486 0.8951167 1.028486 0.8293205 2.081225 0.7635242 1.028486 0.8293205 1.028486 0.7635242 2.081225 0.697728 1.028486 0.7635242 1.028486 0.697728 2.081225 0.6319319 1.028486 0.697728 1.028486 0.6319319 2.081225 0.5661357 1.028486 0.6319319 1.028486 0.5661357 2.081225 0.5003395 1.028486 0.5661357 1.028486 0.5003395 2.081225 0.4345433 1.028486 0.5003395 1.028486 0.4345433 2.081225 0.3687471 1.028486 0.4345433 1.028486 0.3687471 2.081225 0.3029509 1.028486 0.3687471 1.028486 0.3029509 2.081225 0.2371546 1.028486 0.3029509 1.028486 0.2371546 2.081225 0.1713584 1.028486 0.2371546 1.028486 0.1713584 2.081225 0.1055622 1.028486 0.1713584 1.028486 0.3069639 0.03526651 0.9671894 0.308741 0.693715 0.9689666 0.1055622 2.081225 0.03976607 1.028486 0.1055622 1.028486 0.03976607 2.081225 -0.02603018 1.028486 0.03976607 1.028486 1.651661 0.006511211 1.057473 0.4035345 1.454497 0.9977219 2.079448 2.081225 2.013652 2.081225 2.013652 1.028486 2.013652 2.081225 1.947856 2.081225 1.947856 1.028486 1.947856 2.081225 1.88206 2.081225 1.88206 1.028486 1.88206 2.081225 1.816263 2.081225 1.816263 1.028486 1.816263 2.081225 1.750467 2.081225 1.750467 1.028486 1.750467 2.081225 1.684671 2.081225 1.684671 1.028486 1.684671 2.081225 1.618875 2.081225 1.618875 1.028486 1.618875 2.081225 1.553079 2.081225 1.553079 1.028486 1.553079 2.081225 1.487282 2.081225 1.487282 1.028486 1.487282 2.081225 1.421486 2.081225 1.421486 1.028486 1.421486 2.081225 1.35569 2.081225 1.35569 1.028486 1.35569 2.081225 1.289894 2.081225 1.289894 1.028486 1.289894 2.081225 1.224098 2.081225 1.224098 1.028486 1.224098 2.081225 1.158301 2.081225 1.158301 1.028486 1.158301 2.081225 1.092505 2.081225 1.092505 1.028486 1.092505 2.081225 1.026709 2.081225 1.026709 1.028486 1.026709 2.081225 0.9609129 2.081225 0.9609129 1.028486 0.9609129 2.081225 0.8951167 2.081225 0.8951167 1.028486 0.8951167 2.081225 0.8293205 2.081225 0.8293205 1.028486 0.8293205 2.081225 0.7635242 2.081225 0.7635242 1.028486 0.7635242 2.081225 0.697728 2.081225 0.697728 1.028486 0.697728 2.081225 0.6319319 2.081225 0.6319319 1.028486 0.6319319 2.081225 0.5661357 2.081225 0.5661357 1.028486 0.5661357 2.081225 0.5003395 2.081225 0.5003395 1.028486 0.5003395 2.081225 0.4345433 2.081225 0.4345433 1.028486 0.4345433 2.081225 0.3687471 2.081225 0.3687471 1.028486 0.3687471 2.081225 0.3029509 2.081225 0.3029509 1.028486 0.3029509 2.081225 0.2371546 2.081225 0.2371546 1.028486 0.2371546 2.081225 0.1713584 2.081225 0.1713584 1.028486 0.1713584 2.081225 0.1055622 2.081225 0.1055622 1.028486 0.693715 0.9689666 0.5989214 0.9977219 0.5003395 1.007431 0.5003395 1.007431 0.4017574 0.9977219 0.693715 0.9689666 0.4017574 0.9977219 0.3069639 0.9689666 0.693715 0.9689666 0.3069639 0.9689666 0.2196016 0.9222705 0.1430279 0.8594281 0.1430279 0.8594281 0.08018553 0.7828544 0.03348946 0.6954922 0.03348946 0.6954922 0.004734158 0.6006987 -0.004975438 0.5021166 -0.004975438 0.5021166 0.004734158 0.4035345 0.03348946 0.6954922 0.004734158 0.4035345 0.03348946 0.308741 0.03348946 0.6954922 0.03348946 0.308741 0.08018553 0.2213787 0.1430279 0.144805 0.1430279 0.144805 0.2196016 0.08196264 0.3069639 0.03526651 0.3069639 0.03526651 0.4017574 0.006511211 0.693715 0.03526651 0.4017574 0.006511211 0.5003395 -0.003198206 0.693715 0.03526651 0.5003395 -0.003198206 0.5989214 0.006511211 0.693715 0.03526651 0.693715 0.03526651 0.7810773 0.08196264 0.857651 0.144805 0.857651 0.144805 0.9204934 0.2213787 0.9671894 0.308741 0.9671894 0.308741 0.9959448 0.4035345 0.9671894 0.6954922 0.9959448 0.4035345 1.005654 0.5021166 0.9671894 0.6954922 1.005654 0.5021166 0.9959448 0.6006987 0.9671894 0.6954922 0.9671894 0.6954922 0.9204934 0.7828544 0.857651 0.8594281 0.857651 0.8594281 0.7810773 0.9222705 0.693715 0.9689666 0.3069639 0.9689666 0.1430279 0.8594281 0.693715 0.9689666 0.1430279 0.8594281 0.03348946 0.6954922 0.693715 0.9689666 0.03348946 0.308741 0.1430279 0.144805 0.03348946 0.6954922 0.1430279 0.144805 0.3069639 0.03526651 0.03348946 0.6954922 0.693715 0.03526651 0.857651 0.144805 0.3069639 0.03526651 0.857651 0.144805 0.9671894 0.308741 0.3069639 0.03526651 0.9671894 0.6954922 0.857651 0.8594281 0.9671894 0.308741 0.857651 0.8594281 0.693715 0.9689666 0.9671894 0.308741 0.693715 0.9689666 0.03348946 0.6954922 0.3069639 0.03526651 0.1055622 2.081225 0.03976607 2.081225 0.03976607 1.028486 0.03976607 2.081225 -0.02603018 2.081225 -0.02603018 1.028486 1.454497 0.9977219 1.553079 1.007431 1.651661 0.9977219 1.651661 0.9977219 1.746454 0.9689666 1.833817 0.9222705 1.833817 0.9222705 1.91039 0.8594281 1.973232 0.7828544 1.973232 0.7828544 2.019929 0.6954922 2.048684 0.6006987 2.048684 0.6006987 2.058393 0.5021166 2.048684 0.4035345 2.048684 0.4035345 2.019929 0.308741 1.973232 0.2213787 1.973232 0.2213787 1.91039 0.144805 1.833817 0.08196264 1.833817 0.08196264 1.746454 0.03526651 1.651661 0.006511211 1.651661 0.006511211 1.553079 -0.003198206 1.454497 0.006511211 1.454497 0.006511211 1.359703 0.03526651 1.272341 0.08196264 1.272341 0.08196264 1.195767 0.144805 1.132925 0.2213787 1.132925 0.2213787 1.086229 0.308741 1.057473 0.4035345 1.057473 0.4035345 1.047764 0.5021166 1.057473 0.6006987 1.057473 0.6006987 1.086229 0.6954922 1.132925 0.7828544 1.132925 0.7828544 1.195767 0.8594281 1.272341 0.9222705 1.272341 0.9222705 1.359703 0.9689666 1.454497 0.9977219 1.454497 0.9977219 1.651661 0.9977219 2.048684 0.6006987 1.651661 0.9977219 1.833817 0.9222705 2.048684 0.6006987 1.833817 0.9222705 1.973232 0.7828544 2.048684 0.6006987 2.048684 0.6006987 2.048684 0.4035345 1.651661 0.006511211 2.048684 0.4035345 1.973232 0.2213787 1.651661 0.006511211 1.973232 0.2213787 1.833817 0.08196264 1.651661 0.006511211 1.651661 0.006511211 1.454497 0.006511211 1.057473 0.4035345 1.454497 0.006511211 1.272341 0.08196264 1.057473 0.4035345 1.272341 0.08196264 1.132925 0.2213787 1.057473 0.4035345 1.057473 0.4035345 1.057473 0.6006987 1.454497 0.9977219 1.057473 0.6006987 1.132925 0.7828544 1.454497 0.9977219 1.132925 0.7828544 1.272341 0.9222705 1.454497 0.9977219 1.454497 0.9977219 2.048684 0.6006987 1.651661 0.006511211</float_array>
          <technique_common>
            <accessor source="#Cylinder-mesh-map-0-array" count="372" stride="2">
              <param name="S" type="float"/>
              <param name="T" type="float"/>
            </accessor>
          </technique_common>
        </source>
        <vertices id="Cylinder-mesh-vertices">
          <input semantic="POSITION" source="#Cylinder-mesh-positions"/>
        </vertices>
        <triangles material="Material_003-material" count="124">
          <input semantic="VERTEX" source="#Cylinder-mesh-vertices" offset="0"/>
          <input semantic="NORMAL" source="#Cylinder-mesh-normals" offset="1"/>
          <input semantic="TEXCOORD" source="#Cylinder-mesh-map-0" offset="2" set="0"/>
          <p>1 0 0 2 0 1 0 0 2 3 1 3 4 1 4 2 1 5 5 2 6 6 2 7 4 2 8 7 3 9 8 3 10 6 3 11 9 4 12 10 4 13 8 4 14 11 5 15 12 5 16 10 5 17 13 6 18 14 6 19 12 6 20 15 7 21 16 7 22 14 7 23 17 8 24 18 8 25 16 8 26 19 9 27 20 9 28 18 9 29 21 10 30 22 10 31 20 10 32 23 11 33 24 11 34 22 11 35 25 12 36 26 12 37 24 12 38 27 13 39 28 13 40 26 13 41 29 14 42 30 14 43 28 14 44 31 15 45 32 15 46 30 15 47 33 16 48 34 16 49 32 16 50 35 17 51 36 17 52 34 17 53 37 18 54 38 18 55 36 18 56 39 19 57 40 19 58 38 19 59 41 20 60 42 20 61 40 20 62 43 21 63 44 21 64 42 21 65 45 22 66 46 22 67 44 22 68 47 23 69 48 23 70 46 23 71 49 24 72 50 24 73 48 24 74 51 25 75 52 25 76 50 25 77 53 26 78 54 26 79 52 26 80 55 27 81 56 27 82 54 27 83 57 28 84 58 28 85 56 28 86 59 29 87 60 29 88 58 29 89 37 30 90 21 30 91 5 30 92 61 31 93 62 31 94 60 31 95 63 32 96 0 32 97 62 32 98 30 33 99 46 33 100 62 33 101 1 0 102 3 0 103 2 0 104 3 34 105 5 34 106 4 34 107 5 2 108 7 2 109 6 2 110 7 35 111 9 35 112 8 35 113 9 4 114 11 4 115 10 4 116 11 36 117 13 36 118 12 36 119 13 6 120 15 6 121 14 6 122 15 7 123 17 7 124 16 7 125 17 8 126 19 8 127 18 8 128 19 9 129 21 9 130 20 9 131 21 37 132 23 37 133 22 37 134 23 11 135 25 11 136 24 11 137 25 38 138 27 38 139 26 38 140 27 13 141 29 13 142 28 13 143 29 39 144 31 39 145 30 39 146 31 15 147 33 15 148 32 15 149 33 16 150 35 16 151 34 16 152 35 40 153 37 40 154 36 40 155 37 18 156 39 18 157 38 18 158 39 41 159 41 41 160 40 41 161 41 20 162 43 20 163 42 20 164 43 42 165 45 42 166 44 42 167 45 22 168 47 22 169 46 22 170 47 23 171 49 23 172 48 23 173 49 24 174 51 24 175 50 24 176 51 25 177 53 25 178 52 25 179 53 43 180 55 43 181 54 43 182 55 27 183 57 27 184 56 27 185 57 44 186 59 44 187 58 44 188 59 29 189 61 29 190 60 29 191 5 30 192 3 30 193 1 30 194 1 30 195 63 30 196 5 30 197 63 30 198 61 30 199 5 30 200 61 30 201 59 30 202 57 30 203 57 30 204 55 30 205 53 30 206 53 30 207 51 30 208 49 30 209 49 30 210 47 30 211 53 30 212 47 30 213 45 30 214 53 30 215 45 30 216 43 30 217 41 30 218 41 30 219 39 30 220 37 30 221 37 30 222 35 30 223 29 30 224 35 30 225 33 30 226 29 30 227 33 30 228 31 30 229 29 30 230 29 30 231 27 30 232 25 30 233 25 30 234 23 30 235 21 30 236 21 30 237 19 30 238 13 30 239 19 45 240 17 45 241 13 45 242 17 30 243 15 30 244 13 30 245 13 30 246 11 30 247 9 30 248 9 30 249 7 30 250 5 30 251 61 30 252 57 30 253 5 30 254 57 30 255 53 30 256 5 30 257 45 30 258 41 30 259 53 30 260 41 30 261 37 30 262 53 30 263 29 30 264 25 30 265 37 30 266 25 30 267 21 30 268 37 30 269 13 30 270 9 30 271 21 30 272 9 30 273 5 30 274 21 30 275 5 30 276 53 30 277 37 30 278 61 46 279 63 46 280 62 46 281 63 32 282 1 32 283 0 32 284 62 33 285 0 33 286 2 33 287 2 33 288 4 33 289 6 33 290 6 33 291 8 33 292 10 33 293 10 33 294 12 33 295 14 33 296 14 33 297 16 33 298 18 33 299 18 33 300 20 33 301 22 33 302 22 33 303 24 33 304 26 33 305 26 33 306 28 33 307 30 33 308 30 33 309 32 33 310 34 33 311 34 33 312 36 33 313 38 33 314 38 33 315 40 33 316 42 33 317 42 33 318 44 33 319 46 33 320 46 33 321 48 33 322 50 33 323 50 33 324 52 33 325 54 33 326 54 33 327 56 33 328 58 33 329 58 33 330 60 33 331 62 33 332 62 33 333 2 33 334 14 33 335 2 47 336 6 47 337 14 47 338 6 48 339 10 48 340 14 48 341 14 49 342 18 49 343 30 49 344 18 50 345 22 50 346 30 50 347 22 33 348 26 33 349 30 33 350 30 33 351 34 33 352 46 33 353 34 51 354 38 51 355 46 51 356 38 52 357 42 52 358 46 52 359 46 53 360 50 53 361 62 53 362 50 54 363 54 54 364 62 54 365 54 33 366 58 33 367 62 33 368 62 33 369 14 33 370 30 33 371</p>
        </triangles>
      </mesh>
    </geometry>
    <geometry id="Cube_004-mesh" name="Cube.004">
      <mesh>
        <source id="Cube_004-mesh-positions">
          <float_array id="Cube_004-mesh-positions-array" count="24">-1 -1 -1 -1 -1 1 -1 1 -1 -1 1 1 1 -1 -1 1 -1 1 1 1 -1 1 1 1</float_array>
          <technique_common>
            <accessor source="#Cube_004-mesh-positions-array" count="8" stride="3">
              <param name="X" type="float"/>
              <param name="Y" type="float"/>
              <param name="Z" type="float"/>
            </accessor>
          </technique_common>
        </source>
        <source id="Cube_004-mesh-normals">
          <float_array id="Cube_004-mesh-normals-array" count="18">-1 0 0 0 1 0 1 0 0 0 -1 0 0 0 -1 0 0 1</float_array>
          <technique_common>
            <accessor source="#Cube_004-mesh-normals-array" count="6" stride="3">
              <param name="X" type="float"/>
              <param name="Y" type="float"/>
              <param name="Z" type="float"/>
            </accessor>
          </technique_common>
        </source>
        <source id="Cube_004-mesh-map-0">
          <float_array id="Cube_004-mesh-map-0-array" count="72">1.013308 -2.060546 -0.01330804 -1.03393 -0.01330804 -2.060546 1.013308 -1.03393 -0.01330804 -0.007313668 -0.01330804 -1.03393 1.013308 -0.007313668 -0.01330804 1.019302 -0.01330804 -0.007313668 1.013308 1.019302 -0.01330804 2.045918 -0.01330804 1.019302 -0.01330804 -0.007313668 -1.039924 1.019302 -1.039924 -0.007313668 2.039924 -0.007313668 1.013308 1.019302 1.013308 -0.007313668 1.013308 -2.060546 1.013308 -1.03393 -0.01330804 -1.03393 1.013308 -1.03393 1.013308 -0.007313668 -0.01330804 -0.007313668 1.013308 -0.007313668 1.013308 1.019302 -0.01330804 1.019302 1.013308 1.019302 1.013308 2.045918 -0.01330804 2.045918 -0.01330804 -0.007313668 -0.01330804 1.019302 -1.039924 1.019302 2.039924 -0.007313668 2.039924 1.019302 1.013308 1.019302</float_array>
          <technique_common>
            <accessor source="#Cube_004-mesh-map-0-array" count="36" stride="2">
              <param name="S" type="float"/>
              <param name="T" type="float"/>
            </accessor>
          </technique_common>
        </source>
        <vertices id="Cube_004-mesh-vertices">
          <input semantic="POSITION" source="#Cube_004-mesh-positions"/>
        </vertices>
        <triangles material="Material_002-material" count="12">
          <input semantic="VERTEX" source="#Cube_004-mesh-vertices" offset="0"/>
          <input semantic="NORMAL" source="#Cube_004-mesh-normals" offset="1"/>
          <input semantic="TEXCOORD" source="#Cube_004-mesh-map-0" offset="2" set="0"/>
          <p>1 0 0 2 0 1 0 0 2 3 1 3 6 1 4 2 1 5 7 2 6 4 2 7 6 2 8 5 3 9 0 3 10 4 3 11 6 4 12 0 4 13 2 4 14 3 5 15 5 5 16 7 5 17 1 0 18 3 0 19 2 0 20 3 1 21 7 1 22 6 1 23 7 2 24 5 2 25 4 2 26 5 3 27 1 3 28 0 3 29 6 4 30 4 4 31 0 4 32 3 5 33 1 5 34 5 5 35</p>
        </triangles>
      </mesh>
    </geometry>
    <geometry id="Cube_003-mesh" name="Cube.003">
      <mesh>
        <source id="Cube_003-mesh-positions">
          <float_array id="Cube_003-mesh-positions-array" count="24">-1 -1 -1 -1 -1 1 -1 1 -1 -1 1 1 1 -1 -1 1 -1 1 1 1 -1 1 1 1</float_array>
          <technique_common>
            <accessor source="#Cube_003-mesh-positions-array" count="8" stride="3">
              <param name="X" type="float"/>
              <param name="Y" type="float"/>
              <param name="Z" type="float"/>
            </accessor>
          </technique_common>
        </source>
        <source id="Cube_003-mesh-normals">
          <float_array id="Cube_003-mesh-normals-array" count="18">-1 0 0 0 1 0 1 0 0 0 -1 0 0 0 -1 0 0 1</float_array>
          <technique_common>
            <accessor source="#Cube_003-mesh-normals-array" count="6" stride="3">
              <param name="X" type="float"/>
              <param name="Y" type="float"/>
              <param name="Z" type="float"/>
            </accessor>
          </technique_common>
        </source>
        <source id="Cube_003-mesh-map-0">
          <float_array id="Cube_003-mesh-map-0-array" count="72">1.003817 -2.030732 -0.008146762 -1.018769 -0.008146762 -2.030732 1.003817 -1.018769 -0.008146762 -0.006804585 -0.008146762 -1.018769 1.003817 -0.006804585 -0.008146762 1.005159 -0.008146762 -0.006804585 1.003817 1.005159 -0.008146762 2.017123 -0.008146762 1.005159 -0.008146762 -0.006804585 -1.020111 1.005159 -1.020111 -0.006804585 2.015781 -0.006804585 1.003817 1.005159 1.003817 -0.006804585 1.003817 -2.030732 1.003817 -1.018769 -0.008146762 -1.018769 1.003817 -1.018769 1.003817 -0.006804585 -0.008146762 -0.006804585 1.003817 -0.006804585 1.003817 1.005159 -0.008146762 1.005159 1.003817 1.005159 1.003817 2.017123 -0.008146762 2.017123 -0.008146762 -0.006804585 -0.008146762 1.005159 -1.020111 1.005159 2.015781 -0.006804585 2.015781 1.005159 1.003817 1.005159</float_array>
          <technique_common>
            <accessor source="#Cube_003-mesh-map-0-array" count="36" stride="2">
              <param name="S" type="float"/>
              <param name="T" type="float"/>
            </accessor>
          </technique_common>
        </source>
        <vertices id="Cube_003-mesh-vertices">
          <input semantic="POSITION" source="#Cube_003-mesh-positions"/>
        </vertices>
        <triangles material="Material_001-material" count="12">
          <input semantic="VERTEX" source="#Cube_003-mesh-vertices" offset="0"/>
          <input semantic="NORMAL" source="#Cube_003-mesh-normals" offset="1"/>
          <input semantic="TEXCOORD" source="#Cube_003-mesh-map-0" offset="2" set="0"/>
          <p>1 0 0 2 0 1 0 0 2 3 1 3 6 1 4 2 1 5 7 2 6 4 2 7 6 2 8 5 3 9 0 3 10 4 3 11 6 4 12 0 4 13 2 4 14 3 5 15 5 5 16 7 5 17 1 0 18 3 0 19 2 0 20 3 1 21 7 1 22 6 1 23 7 2 24 5 2 25 4 2 26 5 3 27 1 3 28 0 3 29 6 4 30 4 4 31 0 4 32 3 5 33 1 5 34 5 5 35</p>
        </triangles>
      </mesh>
    </geometry>
    <geometry id="Cube-mesh" name="Cube">
      <mesh>
        <source id="Cube-mesh-positions">
          <float_array id="Cube-mesh-positions-array" count="24">1 1 1 1 1 -1 1 -1 1 1 -1 -1 -1 1 1 -1 1 -1 -1 -1 1 -1 -1 -1</float_array>
          <technique_common>
            <accessor source="#Cube-mesh-positions-array" count="8" stride="3">
              <param name="X" type="float"/>
              <param name="Y" type="float"/>
              <param name="Z" type="float"/>
            </accessor>
          </technique_common>
        </source>
        <source id="Cube-mesh-normals">
          <float_array id="Cube-mesh-normals-array" count="18">0 0 1 0 -1 0 -1 0 0 0 0 -1 1 0 0 0 1 0</float_array>
          <technique_common>
            <accessor source="#Cube-mesh-normals-array" count="6" stride="3">
              <param name="X" type="float"/>
              <param name="Y" type="float"/>
              <param name="Z" type="float"/>
            </accessor>
          </technique_common>
        </source>
        <source id="Cube-mesh-map-0">
          <float_array id="Cube-mesh-map-0-array" count="72">0.875 0.5 0.625 0.75 0.625 0.5 0.625 0.75 0.375 1 0.375 0.75 0.625 0 0.375 0.25 0.375 0 0.375 0.5 0.125 0.75 0.125 0.5 0.625 0.5 0.375 0.75 0.375 0.5 0.625 0.25 0.375 0.5 0.375 0.25 0.875 0.5 0.875 0.75 0.625 0.75 0.625 0.75 0.625 1 0.375 1 0.625 0 0.625 0.25 0.375 0.25 0.375 0.5 0.375 0.75 0.125 0.75 0.625 0.5 0.625 0.75 0.375 0.75 0.625 0.25 0.625 0.5 0.375 0.5</float_array>
          <technique_common>
            <accessor source="#Cube-mesh-map-0-array" count="36" stride="2">
              <param name="S" type="float"/>
              <param name="T" type="float"/>
            </accessor>
          </technique_common>
        </source>
        <vertices id="Cube-mesh-vertices">
          <input semantic="POSITION" source="#Cube-mesh-positions"/>
        </vertices>
        <triangles material="Material-material" count="12">
          <input semantic="VERTEX" source="#Cube-mesh-vertices" offset="0"/>
          <input semantic="NORMAL" source="#Cube-mesh-normals" offset="1"/>
          <input semantic="TEXCOORD" source="#Cube-mesh-map-0" offset="2" set="0"/>
          <p>4 0 0 2 0 1 0 0 2 2 1 3 7 1 4 3 1 5 6 2 6 5 2 7 7 2 8 1 3 9 7 3 10 5 3 11 0 4 12 3 4 13 1 4 14 4 5 15 1 5 16 5 5 17 4 0 18 6 0 19 2 0 20 2 1 21 6 1 22 7 1 23 6 2 24 4 2 25 5 2 26 1 3 27 3 3 28 7 3 29 0 4 30 2 4 31 3 4 32 4 5 33 0 5 34 1 5 35</p>
        </triangles>
      </mesh>
    </geometry>
  </library_geometries>
  <library_visual_scenes>
    <visual_scene id="Scene" name="Scene">
      <node id="Cube_002" name="Cube.002" type="NODE">
        <matrix sid="transform">0.27 0 0 0 0 0.183 0 -0.7703748 0 0 0.01 -0.04574711 0 0 0 1</matrix>
        <instance_geometry url="#Cube_006-mesh" name="Cube.002">
          <bind_material>
            <technique_common>
              <instance_material symbol="Material_005-material" target="#Material_005-material">
                <bind_vertex_input semantic="UVMap" input_semantic="TEXCOORD" input_set="0"/>
              </instance_material>
            </technique_common>
          </bind_material>
        </instance_geometry>
      </node>
      <node id="Cube_001" name="Cube.001" type="NODE">
        <matrix sid="transform">0.27 0 0 0 0 0.183 0 0.7729192 0 0 0.01 -0.04574711 0 0 0 1</matrix>
        <instance_geometry url="#Cube_005-mesh" name="Cube.001">
          <bind_material>
            <technique_common>
              <instance_material symbol="Material_006-material" target="#Material_006-material">
                <bind_vertex_input semantic="UVMap" input_semantic="TEXCOORD" input_set="0"/>
              </instance_material>
            </technique_common>
          </bind_material>
        </instance_geometry>
      </node>
      <node id="Cylinder_001" name="Cylinder.001" type="NODE">
        <matrix sid="transform">0.07 0 0 0.17 0 0.07 0 -0.34 0 0 0.05 0.09 0 0 0 1</matrix>
        <instance_geometry url="#Cylinder_001-mesh" name="Cylinder.001">
          <bind_material>
            <technique_common>
              <instance_material symbol="Material_004-material" target="#Material_004-material">
                <bind_vertex_input semantic="UVMap" input_semantic="TEXCOORD" input_set="0"/>
              </instance_material>
            </technique_common>
          </bind_material>
        </instance_geometry>
      </node>
      <node id="Cylinder" name="Cylinder" type="NODE">
        <matrix sid="transform">0.07 0 0 -0.17 0 0.07 0 0.3 0 0 0.05 0.09 0 0 0 1</matrix>
        <instance_geometry url="#Cylinder-mesh" name="Cylinder">
          <bind_material>
            <technique_common>
              <instance_material symbol="Material_003-material" target="#Material_003-material">
                <bind_vertex_input semantic="UVMap" input_semantic="TEXCOORD" input_set="0"/>
              </instance_material>
            </technique_common>
          </bind_material>
        </instance_geometry>
      </node>
      <node id="Cube_004" name="Cube.004" type="NODE">
        <matrix sid="transform">0.084 0 0 -0.3152933 0 0.084 0 -0.2633473 0 0 0.03 0.07270426 0 0 0 1</matrix>
        <instance_geometry url="#Cube_004-mesh" name="Cube.004">
          <bind_material>
            <technique_common>
              <instance_material symbol="Material_002-material" target="#Material_002-material">
                <bind_vertex_input semantic="UVMap" input_semantic="TEXCOORD" input_set="0"/>
              </instance_material>
            </technique_common>
          </bind_material>
        </instance_geometry>
      </node>
      <node id="Cube_003" name="Cube.003" type="NODE">
        <matrix sid="transform">0.084 0 0 0.3233182 0 0.084 0 0.09643643 0 0 0.03 0.07440972 0 0 0 1</matrix>
        <instance_geometry url="#Cube_003-mesh" name="Cube.003">
          <bind_material>
            <technique_common>
              <instance_material symbol="Material_001-material" target="#Material_001-material">
                <bind_vertex_input semantic="UVMap" input_semantic="TEXCOORD" input_set="0"/>
              </instance_material>
            </technique_common>
          </bind_material>
        </instance_geometry>
      </node>
      <node id="Cube" name="Cube" type="NODE">
        <matrix sid="transform">0.6 0 0 0 0 0.6 0 0 0 0 0.05 0 0 0 0 1</matrix>
        <instance_geometry url="#Cube-mesh" name="Cube">
          <bind_material>
            <technique_common>
              <instance_material symbol="Material-material" target="#Material-material">
                <bind_vertex_input semantic="UVMap" input_semantic="TEXCOORD" input_set="0"/>
              </instance_material>
            </technique_common>
          </bind_material>
        </instance_geometry>
      </node>
    </visual_scene>
  </library_visual_scenes>
  <scene>
    <instance_visual_scene url="#Scene"/>
  </scene>
</COLLADA>