<?xml version="1.0" encoding="utf-8"?>
<COLLADA xmlns="http://www.collada.org/2005/11/COLLADASchema" version="1.4.1" xmlns:xsi="http://www.w3.org/2001/XMLSchema-instance">
  <asset>
    <contributor>
      <author>Blender User</author>
      <authoring_tool>Blender 3.6.23 commit date:2025-06-16, commit time:11:52, hash:e467db79ca8c</authoring_tool>
    </contributor>
    <created>2026-06-09T19:47:25</created>
    <modified>2026-06-09T19:47:25</modified>
    <unit name="meter" meter="1"/>
    <up_axis>Z_UP</up_axis>
  </asset>
  <library_effects>
    <effect id="Material_003-effect">
      <profile_COMMON>
        <technique sid="common">
          <lambert>
            <emission>
              <color sid="emission">0 0 0 1</color>
            </emission>
            <diffuse>
              <color sid="diffuse">0.8 0.8 0.8 1</color>
            </diffuse>
            <index_of_refraction>
              <float sid="ior">1.5</float>
            </index_of_refraction>
          </lambert>
        </technique>
      </profile_COMMON>
    </effect>
    <effect id="Material_004-effect">
      <profile_COMMON>
        <newparam sid="Task3_Fire_png-surface">
          <surface type="2D">
            <init_from>Task3_Fire_png</init_from>
          </surface>
        </newparam>
        <newparam sid="Task3_Fire_png-sampler">
          <sampler2D>
            <source>Task3_Fire_png-surface</source>
          </sampler2D>
        </newparam>
        <technique sid="common">
          <lambert>
            <emission>
              <color sid="emission">0 0 0 1</color>
            </emission>
            <diffuse>
              <texture texture="Task3_Fire_png-sampler" texcoord="box_1-mesh-map-0"/>
            </diffuse>
            <index_of_refraction>
              <float sid="ior">1.5</float>
            </index_of_refraction>
          </lambert>
        </technique>
      </profile_COMMON>
    </effect>
  </library_effects>
  <library_images>
    <image id="Task3_Fire_png" name="Task3_Fire_png">
      <init_from>Task3_Fire.png</init_from>
    </image>
  </library_images>
  <library_materials>
    <material id="Material_003-material" name="Material.003">
      <instance_effect url="#Material_003-effect"/>
    </material>
    <material id="Material_004-material" name="Material.004">
      <instance_effect url="#Material_004-effect"/>
    </material>
  </library_materials>
  <library_geometries>
    <geometry id="box_1_001-mesh" name="box_1.001">
      <mesh>
        <source id="box_1_001-mesh-positions">
          <float_array id="box_1_001-mesh-positions-array" count="144">0.175 -0.01999998 0 0.175 -0.01999998 0 0.175 -0.01999998 0 0.175 -0.01999998 0.35 0.175 -0.01999998 0.35 0.175 -0.01999998 0.35 -0.175 -0.01999998 0 -0.175 -0.01999998 0 -0.175 -0.01999998 0 -0.175 -0.01999998 0.35 -0.175 -0.01999998 0.35 -0.175 -0.01999998 0.35 -0.1675 0 0.007499933 -0.1675 0 0.007499933 -0.1675 0 0.3425 -0.1675 0 0.3425 0.1675 0 0.007499933 0.1675 0 0.007499933 0.1675 0 0.3425 0.1675 0 0.3425 0.1675 0.28 0.007499933 0.1675 0.28 0.007499933 0.1675 0.28 0.007499933 -0.1675 0.28 0.007499933 -0.1675 0.28 0.007499933 -0.1675 0.28 0.007499933 0.1675 0.28 0.3425 0.1675 0.28 0.3425 0.1675 0.28 0.3425 -0.1675 0.28 0.3425 -0.1675 0.28 0.3425 -0.1675 0.28 0.3425 -0.175 0.28 0 -0.175 0.28 0 -0.175 0.28 0 0.175 0.28 0 0.175 0.28 0 0.175 0.28 0 0.175 0.28 0.35 0.175 0.28 0.35 0.175 0.28 0.35 -0.175 0.28 0.35 -0.175 0.28 0.35 -0.175 0.28 0.35 -0.1675 0 0.007499933 -0.1675 0 0.3425 0.1675 0 0.007499933 0.1675 0 0.3425</float_array>
          <technique_common>
            <accessor source="#box_1_001-mesh-positions-array" count="48" stride="3">
              <param name="X" type="float"/>
              <param name="Y" type="float"/>
              <param name="Z" type="float"/>
            </accessor>
          </technique_common>
        </source>
        <source id="box_1_001-mesh-normals">
          <float_array id="box_1_001-mesh-normals-array" count="18">0 -1 0 0 0 1 -1 0 0 0 0 -1 1 0 0 0 1 0</float_array>
          <technique_common>
            <accessor source="#box_1_001-mesh-normals-array" count="6" stride="3">
              <param name="X" type="float"/>
              <param name="Y" type="float"/>
              <param name="Z" type="float"/>
            </accessor>
          </technique_common>
        </source>
        <source id="box_1_001-mesh-map-0">
          <float_array id="box_1_001-mesh-map-0-array" count="168">1.033584 0.008477509 0.002937853 0.008477389 1.033584 -1.022169 1.033584 -1.022169 0.002937853 0.008477389 0.002937853 -1.022169 1.813931 1.039124 1.81393 2.025599 0.9894137 1.039124 0.9894137 1.039124 1.81393 2.025599 0.9894136 2.025599 3.462964 1.039124 3.462964 2.025599 2.638447 1.039124 2.638447 1.039124 3.462964 2.025599 2.638447 2.025599 2.638447 1.039124 2.638447 2.025599 1.81393 1.039124 1.81393 1.039124 2.638447 2.025599 1.81393 2.025599 2.756235 0.9949531 2.756235 0.008477687 3.580752 0.9949531 3.580752 0.9949531 2.756235 0.008477687 3.580752 0.008477687 0.9894136 0.008477687 1.872824 0.008477807 0.9894135 1.039124 0.9894135 1.039124 1.872824 0.008477807 1.872824 1.039124 2.947641 0.008477389 2.06423 0.008477389 2.947641 -1.022169 2.947641 -1.022169 2.06423 0.008477389 2.06423 -1.022169 1.872824 0.008477509 2.756235 0.008477687 1.872824 1.039124 1.872824 1.039124 2.756235 0.008477687 2.756235 1.039124 0.002937853 0.9949533 0.886349 0.9949533 0.002937853 2.025599 0.002937853 2.025599 0.886349 0.9949533 0.886349 2.025599 2.042145 -1.000083 2.06423 -1.022169 2.042145 -0.01360774 2.042145 -0.01360774 2.06423 -1.022169 2.06423 0.008477509 2.042145 -0.01360774 2.06423 0.008477509 1.055669 -0.0136078 1.055669 -0.0136078 2.06423 0.008477509 1.033584 0.008477389 1.055669 -0.0136078 1.033584 0.008477389 1.055669 -1.000083 1.055669 -1.000083 1.033584 0.008477389 1.033584 -1.022169 1.055669 -1.000083 1.033584 -1.022169 2.042145 -1.000083 2.042145 -1.000083 1.033584 -1.022169 2.06423 -1.022169 0.9894135 0.9949531 0.002937853 0.9949531 0.9894136 0.008477687 0.9894136 0.008477687 0.002937853 0.9949531 0.002937853 0.008477687</float_array>
          <technique_common>
            <accessor source="#box_1_001-mesh-map-0-array" count="84" stride="2">
              <param name="S" type="float"/>
              <param name="T" type="float"/>
            </accessor>
          </technique_common>
        </source>
        <vertices id="box_1_001-mesh-vertices">
          <input semantic="POSITION" source="#box_1_001-mesh-positions"/>
        </vertices>
        <triangles material="Material_003-material" count="26">
          <input semantic="VERTEX" source="#box_1_001-mesh-vertices" offset="0"/>
          <input semantic="NORMAL" source="#box_1_001-mesh-normals" offset="1"/>
          <input semantic="TEXCOORD" source="#box_1_001-mesh-map-0" offset="2" set="0"/>
          <p>0 0 0 3 0 1 6 0 2 6 0 3 3 0 4 9 0 5 21 1 6 24 1 7 16 1 8 16 1 9 24 1 10 12 1 11 28 2 12 22 2 13 19 2 14 19 2 15 22 2 16 17 2 17 30 3 18 27 3 19 14 3 20 14 3 21 27 3 22 18 3 23 25 4 24 31 4 25 13 4 26 13 4 27 31 4 28 15 4 29 7 3 30 33 3 31 1 3 32 1 3 33 33 3 34 36 3 35 2 4 36 37 4 37 5 4 38 5 4 39 37 4 40 40 4 41 4 1 42 39 1 43 10 1 44 10 1 45 39 1 46 42 1 47 11 2 48 43 2 49 8 2 50 8 2 51 43 2 52 34 2 53 20 5 54 35 5 55 23 5 56 23 5 57 35 5 58 32 5 59 23 5 60 32 5 61 29 5 62 29 5 63 32 5 64 41 5 65 29 5 66 41 5 67 26 5 68 26 5 69 41 5 70 38 5 71 26 5 72 38 5 73 20 5 74 20 5 75 38 5 76 35 5 77</p>
        </triangles>
        <triangles material="Material_004-material" count="2">
          <input semantic="VERTEX" source="#box_1_001-mesh-vertices" offset="0"/>
          <input semantic="NORMAL" source="#box_1_001-mesh-normals" offset="1"/>
          <input semantic="TEXCOORD" source="#box_1_001-mesh-map-0" offset="2" set="0"/>
          <p>44 5 78 45 5 79 46 5 80 46 5 81 45 5 82 47 5 83</p>
        </triangles>
      </mesh>
    </geometry>
  </library_geometries>
  <library_visual_scenes>
    <visual_scene id="Scene" name="Scene">
      <node id="box_1" name="box_1" type="NODE">
        <matrix sid="transform">1 0 0 0 0 0.2 0 0 0 0 1 0 0 0 0 1</matrix>
        <instance_geometry url="#box_1_001-mesh" name="box_1">
          <bind_material>
            <technique_common>
              <instance_material symbol="Material_003-material" target="#Material_003-material">
                <bind_vertex_input semantic="box_1-mesh-map-0" input_semantic="TEXCOORD" input_set="0"/>
              </instance_material>
              <instance_material symbol="Material_004-material" target="#Material_004-material">
                <bind_vertex_input semantic="box_1-mesh-map-0" input_semantic="TEXCOORD" input_set="0"/>
              </instance_material>
            </technique_common>
          </bind_material>
        </instance_geometry>
      </node>
    </visual_scene>
  </library_visual_scenes>
  <scene>
    <instance_visual_scene url="#Scene"/>
  </scene>
</COLLADA>