<?xml version="1.0" encoding="utf-8"?>
<COLLADA xmlns="http://www.collada.org/2005/11/COLLADASchema" version="1.4.1" xmlns:xsi="http://www.w3.org/2001/XMLSchema-instance">
  <asset>
    <contributor>
      <author>Blender User</author>
      <authoring_tool>Blender 3.6.23 commit date:2025-06-16, commit time:11:52, hash:e467db79ca8c</authoring_tool>
    </contributor>
    <created>2026-05-21T19:40:46</created>
    <modified>2026-05-21T19:40:46</modified>
    <unit name="meter" meter="1"/>
    <up_axis>Z_UP</up_axis>
  </asset>
  <library_effects>
    <effect id="Material_001-effect">
      <profile_COMMON>
        <technique sid="common">
          <lambert>
            <emission>
              <color sid="emission">0 0 0 1</color>
            </emission>
            <diffuse>
              <color sid="diffuse">0.8 0.8 0.8 1</color>
            </diffuse>
            <index_of_refraction>
              <float sid="ior">1.5</float>
            </index_of_refraction>
          </lambert>
        </technique>
      </profile_COMMON>
    </effect>
    <effect id="Task1_SearchRescue_Fixed-effect">
      <profile_COMMON>
        <newparam sid="Task1_SearchRescue_Fixed_png-surface">
          <surface type="2D">
            <init_from>Task1_SearchRescue_Fixed_png</init_from>
          </surface>
        </newparam>
        <newparam sid="Task1_SearchRescue_Fixed_png-sampler">
          <sampler2D>
            <source>Task1_SearchRescue_Fixed_png-surface</source>
          </sampler2D>
        </newparam>
        <technique sid="common">
          <lambert>
            <emission>
              <color sid="emission">0 0 0 1</color>
            </emission>
            <diffuse>
              <texture texture="Task1_SearchRescue_Fixed_png-sampler" texcoord="Task1_SearchRescue_Fixed_001-mesh-map-0"/>
            </diffuse>
            <index_of_refraction>
              <float sid="ior">1.5</float>
            </index_of_refraction>
          </lambert>
        </technique>
      </profile_COMMON>
    </effect>
    <effect id="Task1_SurveyRepair_Fixed-effect">
      <profile_COMMON>
        <newparam sid="Task1_SurveyRepair_Fixed_png-surface">
          <surface type="2D">
            <init_from>Task1_SurveyRepair_Fixed_png</init_from>
          </surface>
        </newparam>
        <newparam sid="Task1_SurveyRepair_Fixed_png-sampler">
          <sampler2D>
            <source>Task1_SurveyRepair_Fixed_png-surface</source>
          </sampler2D>
        </newparam>
        <technique sid="common">
          <lambert>
            <emission>
              <color sid="emission">0 0 0 1</color>
            </emission>
            <diffuse>
              <texture texture="Task1_SurveyRepair_Fixed_png-sampler" texcoord="Task1_SurveyRepair_Fixed_001-mesh-map-0"/>
            </diffuse>
            <index_of_refraction>
              <float sid="ior">1.5</float>
            </index_of_refraction>
          </lambert>
        </technique>
      </profile_COMMON>
    </effect>
  </library_effects>
  <library_images>
    <image id="Task1_SearchRescue_Fixed_png" name="Task1_SearchRescue_Fixed_png">
      <init_from>Task1_SearchRescue_Fixed.png</init_from>
    </image>
    <image id="Task1_SurveyRepair_Fixed_png" name="Task1_SurveyRepair_Fixed_png">
      <init_from>Task1_SurveyRepair_Fixed.png</init_from>
    </image>
  </library_images>
  <library_materials>
    <material id="Material_001-material" name="Material.001">
      <instance_effect url="#Material_001-effect"/>
    </material>
    <material id="Task1_SearchRescue_Fixed-material" name="Task1_SearchRescue_Fixed">
      <instance_effect url="#Task1_SearchRescue_Fixed-effect"/>
    </material>
    <material id="Task1_SurveyRepair_Fixed-material" name="Task1_SurveyRepair_Fixed">
      <instance_effect url="#Task1_SurveyRepair_Fixed-effect"/>
    </material>
  </library_materials>
  <library_geometries>
    <geometry id="base_link-mesh" name="base_link">
      <mesh>
        <source id="base_link-mesh-positions">
          <float_array id="base_link-mesh-positions-array" count="2013">0.6096 0.600097 0.004999995 0.6096 0.600097 0.004999995 0.6096 0.600097 0.004999995 0.6096 0.600097 0.004999995 0.6096 0.600097 0.004999995 0.6096 0.600097 0.004999995 0.6096 0.2948 0.004999995 0.6096 0.2948 0.004999995 0.6096 0.2948 0.004999995 0.9144 0.600097 0.004999995 0.9144 0.600097 0.004999995 0.9144 0.600097 0.004999995 0.9144 0.600097 0.004999995 0.9144 0.600097 0.004999995 0.9144 0.600097 0.004999995 0.9144 0.600097 0.004999995 0.9144 0.2948 0.004999995 0.9144 0.2948 0.004999995 0.9144 0.2948 0.004999995 0.9144 0.2948 -0.004999995 0.9144 0.2948 -0.004999995 0.9144 0.2948 -0.004999995 0.6096 0.2948 -0.004999995 0.6096 0.2948 -0.004999995 0.6096 0.2948 -0.004999995 0.9144 0.600097 -0.004999995 0.9144 0.600097 -0.004999995 0.9144 0.600097 -0.004999995 0.9144 0.600097 -0.004999995 0.9144 0.600097 -0.004999995 0.6096 0.600097 -0.004999995 0.6096 0.600097 -0.004999995 0.6096 0.600097 -0.004999995 0.6096 0.600097 -0.004999995 0.6096 0.600097 -0.004999995 0.6096 0.600097 -0.004999995 0.6096 0.600097 -0.004999995 0.9144 0.5996 0 0.9144 0.5996 0 0.6096 0.5996 0 -0.9144 0.600097 0.004999995 -0.9144 0.600097 0.004999995 -0.9144 0.600097 0.004999995 -0.9144 0.600097 0.004999995 -0.9144 0.600097 0.004999995 -0.9144 0.600097 0.004999995 -0.9144 0.2948 0.004999995 -0.9144 0.2948 0.004999995 -0.9144 0.2948 0.004999995 -0.6096 0.600097 0.004999995 -0.6096 0.600097 0.004999995 -0.6096 0.600097 0.004999995 -0.6096 0.600097 0.004999995 -0.6096 0.600097 0.004999995 -0.6096 0.600097 0.004999995 -0.6096 0.2948 0.004999995 -0.6096 0.2948 0.004999995 -0.6096 0.2948 0.004999995 -0.6096 0.2948 -0.004999995 -0.6096 0.2948 -0.004999995 -0.6096 0.2948 -0.004999995 -0.9144 0.2948 -0.004999995 -0.9144 0.2948 -0.004999995 -0.9144 0.2948 -0.004999995 -0.6096 0.600097 -0.004999995 -0.6096 0.600097 -0.004999995 -0.6096 0.600097 -0.004999995 -0.6096 0.600097 -0.004999995 -0.6096 0.600097 -0.004999995 -0.6096 0.600097 -0.004999995 -0.6096 0.600097 -0.004999995 -0.9144 0.600097 -0.004999995 -0.9144 0.600097 -0.004999995 -0.9144 0.600097 -0.004999995 -0.9144 0.600097 -0.004999995 -0.9144 0.600097 -0.004999995 -0.9144 0.600097 -0.004999995 -0.9144 0.5996 0 -0.6096 0.5996 0 -0.6096 0.5996 0 0.01269996 0 0.02199703 0.01269996 0 0.02199703 0.01269996 0 0.02199703 0.01269996 0 0.02199703 0.01269996 0 0.02199703 0.01269996 0 0.02199703 -0.02199703 0 -0.01269996 -0.02199703 0 -0.01269996 -0.02199703 0 -0.01269996 -0.02199703 0 -0.01269996 -0.02199703 0 -0.01269996 -0.02199703 0 -0.01269996 0.02199703 0 0.01269996 0.02199703 0 0.01269996 0.02199703 0 0.01269996 0.02199703 0 0.01269996 0.02199703 0 0.01269996 0.02199703 0 0.01269996 -0.01269996 0 -0.02199703 -0.01269996 0 -0.02199703 -0.01269996 0 -0.02199703 -0.01269996 0 -0.02199703 -0.01269996 0 -0.02199703 -0.01269996 0 -0.02199703 0.02199703 0 -0.01269996 0.02199703 0 -0.01269996 0.02199703 0 -0.01269996 0.02199703 0 -0.01269996 0.02199703 0 -0.01269996 0.02539998 0 0 0.02539998 0 0 0.01269996 0 -0.02199703 0.01269996 0 -0.02199703 0.01269996 0 -0.02199703 0.01269996 0 -0.02199703 0.01269996 0 -0.02199703 0.01269996 0 -0.02199703 0.01269996 0 -0.02199703 0 0 -0.02539998 0 0 -0.02539998 0 0 -0.02539998 -0.02199703 0 0.01269996 -0.02199703 0 0.01269996 -0.02199703 0 0.01269996 -0.02199703 0 0.01269996 -0.02199703 0 0.01269996 -0.02539998 0 0 -0.02539998 0 0 -0.02539998 0 0 -0.02539998 0 0 -0.01269996 0 0.02199703 -0.01269996 0 0.02199703 -0.01269996 0 0.02199703 -0.01269996 0 0.02199703 -0.01269996 0 0.02199703 -0.01269996 0 0.02199703 -0.01269996 0 0.02199703 0 0 0.02539998 0 0 0.02539998 0 0 0.02539998 0.02539998 0.5996 0 0.02539998 0.5996 0 0.02539998 0.5996 0 0.02539998 0.5996 0 0.02539998 0.5996 0 0.02539998 0.5996 0 0.02539998 0 0 0.02539998 0 0 0.02382177 0.6011782 -0.008813798 0.02382177 0.6011782 -0.008813798 0.02382177 0.6011782 -0.008813798 0.02382177 0.6011782 -0.008813798 0.02382177 0.6011782 -0.008813798 0.02191126 0.6030887 -0.01284742 0.02191126 0.6030887 -0.01284742 0.02191126 0.6030887 -0.01284742 0.02191126 0.6030887 -0.01284742 0.02191126 0.6030887 -0.01284742 0.02191126 0.6030887 -0.01284742 0.02191126 0.6030887 -0.01284742 0.01862347 0.6063765 -0.01727211 0.01862347 0.6063765 -0.01727211 0.01862347 0.6063765 -0.01727211 0.01862347 0.6063765 -0.01727211 0.01862347 0.6063765 -0.01727211 0.01582509 0.6091749 -0.01986759 0.01582509 0.6091749 -0.01986759 0.01582509 0.6091749 -0.01986759 0.01582509 0.6091749 -0.01986759 0 0.625 -0.02539998 0 0.625 -0.02539998 0 0.625 -0.02539998 0 0.625 -0.02539998 0.001466751 0.6235331 -0.0253576 0.001466751 0.6235331 -0.0253576 0.001466751 0.6235331 -0.0253576 0.001466751 0.6235331 -0.0253576 0.01254004 0.61246 -0.02208852 0.01254004 0.61246 -0.02208852 0.01254004 0.61246 -0.02208852 0.01254004 0.61246 -0.02208852 0.01254004 0.61246 -0.02208852 0.01254004 0.61246 -0.02208852 -0.01260066 0.6123992 -0.02205395 -0.01260066 0.6123992 -0.02205395 -0.01260066 0.6123992 -0.02205395 -0.01260066 0.6123992 -0.02205395 -0.01260066 0.6123992 -0.02205395 -0.01260066 0.6123992 -0.02205395 -0.02539998 0.5996 0 -0.02539998 0.5996 0 -0.02539998 0.5996 0 -0.0253061 0.5996939 -0.002181828 -0.0253061 0.5996939 -0.002181828 -0.0253061 0.5996939 -0.002181828 -0.0253061 0.5996939 -0.002181828 -0.0253061 0.5996939 -0.002181828 -0.02287143 0.6021285 -0.01104784 -0.02287143 0.6021285 -0.01104784 -0.02287143 0.6021285 -0.01104784 -0.02287143 0.6021285 -0.01104784 -0.02191668 0.6030832 -0.01283794 -0.02191668 0.6030832 -0.01283794 -0.02191668 0.6030832 -0.01283794 -0.02191668 0.6030832 -0.01283794 -0.02191668 0.6030832 -0.01283794 -0.02191668 0.6030832 -0.01283794 -0.01460134 0.6103986 -0.0207836 -0.01460134 0.6103986 -0.0207836 -0.01460134 0.6103986 -0.0207836 -0.01460134 0.6103986 -0.0207836 -1.502003 -0.9244 -0.01269996 -1.502003 -0.9244 -0.01269996 -1.502003 -0.9244 -0.01269996 -1.502003 -0.9244 -0.01269996 -1.502003 -0.9244 -0.01269996 -1.4986 -0.9244 0 -1.4986 -0.9244 0 -1.4986 -0.9244 0 -1.4986 -0.9244 0 -1.502003 -0.9244 0.01269996 -1.502003 -0.9244 0.01269996 -1.502003 -0.9244 0.01269996 -1.502003 -0.9244 0.01269996 -1.502003 -0.9244 0.01269996 -1.545997 -0.9244 0.01269996 -1.545997 -0.9244 0.01269996 -1.545997 -0.9244 0.01269996 -1.545997 -0.9244 0.01269996 -1.545997 -0.9244 0.01269996 -1.545997 -0.9244 0.01269996 -1.5494 -0.9244 0 -1.5494 -0.9244 0 -1.5494 -0.9244 0 -1.5494 -0.9244 0 -1.5494 -0.9244 0 -1.545997 -0.9244 -0.01269996 -1.545997 -0.9244 -0.01269996 -1.545997 -0.9244 -0.01269996 -1.545997 -0.9244 -0.01269996 -1.545997 -0.9244 -0.01269996 -1.524 -0.9244 0.02539998 -1.524 -0.9244 0.02539998 -1.524 -0.9244 0.02539998 -1.524 -0.9244 0.02539998 -1.524 -0.9244 0.02539998 -1.5367 -0.9244 0.02199703 -1.5367 -0.9244 0.02199703 -1.5367 -0.9244 0.02199703 -1.5367 -0.9244 0.02199703 -1.5367 -0.9244 0.02199703 -1.5113 -0.9244 0.02199703 -1.5113 -0.9244 0.02199703 -1.5113 -0.9244 0.02199703 -1.5113 -0.9244 0.02199703 -1.5113 -0.9244 0.02199703 -1.5367 -0.9244 -0.02199703 -1.5367 -0.9244 -0.02199703 -1.5367 -0.9244 -0.02199703 -1.5367 -0.9244 -0.02199703 -1.5367 -0.9244 -0.02199703 -1.524 -0.9244 -0.02539998 -1.524 -0.9244 -0.02539998 -1.524 -0.9244 -0.02539998 -1.524 -0.9244 -0.02539998 -1.5113 -0.9244 -0.02199703 -1.5113 -0.9244 -0.02199703 -1.5113 -0.9244 -0.02199703 -1.5113 -0.9244 -0.02199703 -1.5113 -0.9244 -0.02199703 1.524 -0.9244 0.02539998 1.524 -0.9244 0.02539998 1.524 -0.9244 0.02539998 1.524 -0.9244 0.02539998 1.524 -0.9244 0.02539998 1.5113 -0.9244 0.02199703 1.5113 -0.9244 0.02199703 1.5113 -0.9244 0.02199703 1.5113 -0.9244 0.02199703 1.5113 -0.9244 0.02199703 1.502003 -0.9244 0.01269996 1.502003 -0.9244 0.01269996 1.502003 -0.9244 0.01269996 1.502003 -0.9244 0.01269996 1.4986 -0.9244 0 1.4986 -0.9244 0 1.545997 -0.9244 -0.01269996 1.545997 -0.9244 -0.01269996 1.545997 -0.9244 -0.01269996 1.545997 -0.9244 -0.01269996 1.545997 -0.9244 -0.01269996 1.545997 -0.9244 -0.01269996 1.502003 -0.9244 -0.01269996 1.502003 -0.9244 -0.01269996 1.502003 -0.9244 -0.01269996 1.502003 -0.9244 -0.01269996 1.502003 -0.9244 -0.01269996 1.5113 -0.9244 -0.02199703 1.5113 -0.9244 -0.02199703 1.5113 -0.9244 -0.02199703 1.5113 -0.9244 -0.02199703 1.5113 -0.9244 -0.02199703 1.524 -0.9244 -0.02539998 1.524 -0.9244 -0.02539998 1.524 -0.9244 -0.02539998 1.524 -0.9244 -0.02539998 1.524 -0.9244 -0.02539998 1.5367 -0.9244 -0.02199703 1.5367 -0.9244 -0.02199703 1.5367 -0.9244 -0.02199703 1.5367 -0.9244 -0.02199703 1.5367 -0.9244 -0.02199703 1.5367 -0.9244 0.02199703 1.5367 -0.9244 0.02199703 1.5367 -0.9244 0.02199703 1.5367 -0.9244 0.02199703 1.5367 -0.9244 0.02199703 1.545997 -0.9244 0.01269996 1.545997 -0.9244 0.01269996 1.545997 -0.9244 0.01269996 1.545997 -0.9244 0.01269996 1.545997 -0.9244 0.01269996 1.5494 -0.9244 0 1.5494 -0.9244 0 1.5494 -0.9244 0 1.5494 -0.9244 0 1.5494 -0.9244 0 -1.50028 0.6012799 -0.009083747 -1.50028 0.6012799 -0.009083747 -1.50028 0.6012799 -0.009083747 -1.50028 0.6012799 -0.009083747 -1.4986 0.5996 0 -1.4986 0.5996 0 -1.4986 0.5996 0 -1.4986 0.5996 0 -1.4986 0.5996 0 -1.4986 0.5996 0 -1.502106 0.6031063 -0.01287728 -1.502106 0.6031063 -0.01287728 -1.502106 0.6031063 -0.01287728 -1.502106 0.6031063 -0.01287728 -1.502106 0.6031063 -0.01287728 -1.502106 0.6031063 -0.01287728 -1.502106 0.6031063 -0.01287728 -1.502106 0.6031063 -0.01287728 -1.502106 0.6031063 -0.01287728 -1.506392 0.6073921 -0.01830625 -1.506392 0.6073921 -0.01830625 -1.506392 0.6073921 -0.01830625 -1.506392 0.6073921 -0.01830625 -1.511497 0.6124966 -0.02210932 -1.511497 0.6124966 -0.02210932 -1.511497 0.6124966 -0.02210932 -1.511497 0.6124966 -0.02210932 -1.511497 0.6124966 -0.02210932 -1.511497 0.6124966 -0.02210932 -1.518571 0.6195713 -0.02481305 -1.518571 0.6195713 -0.02481305 -1.518571 0.6195713 -0.02481305 -1.518571 0.6195713 -0.02481305 -1.523951 0.6249508 -0.02539992 -1.523951 0.6249508 -0.02539992 -1.523951 0.6249508 -0.02539992 -1.523951 0.6249508 -0.02539992 -1.523951 0.6249508 -0.02539992 -1.535174 0.6361742 -0.02281004 -1.535174 0.6361742 -0.02281004 -1.535174 0.6361742 -0.02281004 -1.535174 0.6361742 -0.02281004 -1.535174 0.6361742 -0.02281004 -1.536617 0.6376168 -0.02204477 -1.536617 0.6376168 -0.02204477 -1.536617 0.6376168 -0.02204477 -1.536617 0.6376168 -0.02204477 -1.536617 0.6376168 -0.02204477 -1.536617 0.6376168 -0.02204477 -1.54432 0.64532 -0.01523995 -1.54432 0.64532 -0.01523995 -1.54432 0.64532 -0.01523995 -1.54432 0.64532 -0.01523995 -1.54432 0.64532 -0.01523995 -1.54593 0.6469303 -0.01281476 -1.54593 0.6469303 -0.01281476 -1.54593 0.6469303 -0.01281476 -1.54593 0.6469303 -0.01281476 -1.54863 0.6496301 -0.006206095 -1.54863 0.6496301 -0.006206095 -1.54863 0.6496301 -0.006206095 -1.54863 0.6496301 -0.006206095 -1.54863 0.6496301 -0.006206095 -1.5494 0.6504 0 -1.5494 0.6504 0 -1.5494 0.6504 0 -1.5494 0.6504 0 1.5494 0.6504 0 1.5494 0.6504 0 1.5494 0.6504 0 1.5494 0.6504 0 1.5494 0.6504 0 1.54863 0.6496301 -0.006206095 1.54863 0.6496301 -0.006206095 1.54863 0.6496301 -0.006206095 1.54863 0.6496301 -0.006206095 1.54863 0.6496301 -0.006206095 1.54593 0.6469303 -0.01281476 1.54593 0.6469303 -0.01281476 1.54593 0.6469303 -0.01281476 1.54593 0.6469303 -0.01281476 1.536617 0.6376168 -0.02204477 1.536617 0.6376168 -0.02204477 1.536617 0.6376168 -0.02204477 1.536617 0.6376168 -0.02204477 1.536617 0.6376168 -0.02204477 1.536617 0.6376168 -0.02204477 1.54432 0.64532 -0.01523995 1.54432 0.64532 -0.01523995 1.54432 0.64532 -0.01523995 1.54432 0.64532 -0.01523995 1.54432 0.64532 -0.01523995 1.511497 0.6124966 -0.02210932 1.511497 0.6124966 -0.02210932 1.511497 0.6124966 -0.02210932 1.511497 0.6124966 -0.02210932 1.511497 0.6124966 -0.02210932 1.511497 0.6124966 -0.02210932 1.511497 0.6124966 -0.02210932 1.511497 0.6124966 -0.02210932 1.518571 0.6195713 -0.02481305 1.518571 0.6195713 -0.02481305 1.518571 0.6195713 -0.02481305 1.518571 0.6195713 -0.02481305 1.523951 0.6249508 -0.02539992 1.523951 0.6249508 -0.02539992 1.523951 0.6249508 -0.02539992 1.523951 0.6249508 -0.02539992 1.523951 0.6249508 -0.02539992 1.523951 0.6249508 -0.02539992 1.523951 0.6249508 -0.02539992 1.535174 0.6361742 -0.02281004 1.535174 0.6361742 -0.02281004 1.535174 0.6361742 -0.02281004 1.535174 0.6361742 -0.02281004 1.4986 0.5996 0 1.4986 0.5996 0 1.4986 0.5996 0 1.4986 0.5996 0 1.4986 0.5996 0 1.4986 0.5996 0 1.50028 0.6012799 -0.009083747 1.50028 0.6012799 -0.009083747 1.50028 0.6012799 -0.009083747 1.50028 0.6012799 -0.009083747 1.50028 0.6012799 -0.009083747 1.502106 0.6031063 -0.01287728 1.502106 0.6031063 -0.01287728 1.502106 0.6031063 -0.01287728 1.502106 0.6031063 -0.01287728 1.502106 0.6031063 -0.01287728 1.502106 0.6031063 -0.01287728 1.502106 0.6031063 -0.01287728 1.506392 0.6073921 -0.01830625 1.506392 0.6073921 -0.01830625 1.506392 0.6073921 -0.01830625 1.506392 0.6073921 -0.01830625 0 0.625 -0.02539998 0 0.625 -0.02539998 0 0.625 -0.02539998 0 0.625 -0.02539998 0 0.625 -0.02539998 0 0.625 -0.02539998 0 0.625 -0.02539998 0 0.625 -0.02539998 -0.02539998 0.5996 0 -0.02539998 0.5996 0 -0.02539998 0.5996 0 -0.6096 0.5996 0 -0.6096 0.5996 0 -0.9144 0.5996 0 -0.9144 0.5996 0 -0.9144 0.5996 0 0.9144 0.5996 0 0.9144 0.5996 0 0.6096 0.5996 0 0.6096 0.5996 0 0.6096 0.5996 0 0.0253061 0.5996939 0.002181828 0.0253061 0.5996939 0.002181828 0.0253061 0.5996939 0.002181828 0.0253061 0.5996939 0.002181828 0.0253061 0.5996939 0.002181828 0.02287143 0.6021285 0.01104784 0.02287143 0.6021285 0.01104784 0.02287143 0.6021285 0.01104784 0.02287143 0.6021285 0.01104784 0.02191668 0.6030832 0.01283794 0.02191668 0.6030832 0.01283794 0.02191668 0.6030832 0.01283794 0.02191668 0.6030832 0.01283794 0.02191668 0.6030832 0.01283794 0.02191668 0.6030832 0.01283794 0.02191668 0.6030832 0.01283794 1.49937 0.6003699 0.006206095 1.49937 0.6003699 0.006206095 1.49937 0.6003699 0.006206095 1.49937 0.6003699 0.006206095 1.50207 0.6030697 0.01281476 1.50207 0.6030697 0.01281476 1.50207 0.6030697 0.01281476 1.50207 0.6030697 0.01281476 1.50207 0.6030697 0.01281476 1.50207 0.6030697 0.01281476 1.50207 0.6030697 0.01281476 1.50207 0.6030697 0.01281476 0.01460134 0.6103986 0.0207836 0.01460134 0.6103986 0.0207836 0.01460134 0.6103986 0.0207836 0.01460134 0.6103986 0.0207836 0.01260066 0.6123992 0.02205395 0.01260066 0.6123992 0.02205395 0.01260066 0.6123992 0.02205395 0.01260066 0.6123992 0.02205395 0.01260066 0.6123992 0.02205395 0.01260066 0.6123992 0.02205395 1.50368 0.60468 0.01523995 1.50368 0.60468 0.01523995 1.50368 0.60468 0.01523995 1.50368 0.60468 0.01523995 1.50368 0.60468 0.01523995 1.511383 0.6123833 0.02204477 1.511383 0.6123833 0.02204477 1.511383 0.6123833 0.02204477 1.511383 0.6123833 0.02204477 1.511383 0.6123833 0.02204477 0 0.625 0.02539998 0 0.625 0.02539998 0 0.625 0.02539998 0 0.625 0.02539998 0 0.625 0.02539998 0 0.625 0.02539998 0 0.625 0.02539998 0 0.625 0.02539998 1.512826 0.6138259 0.02281004 1.512826 0.6138259 0.02281004 1.512826 0.6138259 0.02281004 1.512826 0.6138259 0.02281004 1.512826 0.6138259 0.02281004 -1.50207 0.6030697 0.01281476 -1.50207 0.6030697 0.01281476 -1.50207 0.6030697 0.01281476 -1.50207 0.6030697 0.01281476 -1.50207 0.6030697 0.01281476 -1.50207 0.6030697 0.01281476 -0.02191126 0.6030887 0.01284742 -0.02191126 0.6030887 0.01284742 -0.02191126 0.6030887 0.01284742 -0.02191126 0.6030887 0.01284742 -0.02191126 0.6030887 0.01284742 -0.02191126 0.6030887 0.01284742 -0.02191126 0.6030887 0.01284742 -1.50368 0.60468 0.01523995 -1.50368 0.60468 0.01523995 -1.50368 0.60468 0.01523995 -1.50368 0.60468 0.01523995 -1.50368 0.60468 0.01523995 -1.50368 0.60468 0.01523995 -1.50368 0.60468 0.01523995 -0.01862347 0.6063765 0.01727211 -0.01862347 0.6063765 0.01727211 -0.01862347 0.6063765 0.01727211 -0.01862347 0.6063765 0.01727211 -0.01862347 0.6063765 0.01727211 -1.512826 0.6138259 0.02281004 -1.512826 0.6138259 0.02281004 -1.512826 0.6138259 0.02281004 -1.512826 0.6138259 0.02281004 -1.512826 0.6138259 0.02281004 -1.512826 0.6138259 0.02281004 -1.511383 0.6123833 0.02204477 -1.511383 0.6123833 0.02204477 -1.511383 0.6123833 0.02204477 -1.511383 0.6123833 0.02204477 -1.511383 0.6123833 0.02204477 -0.01254004 0.61246 0.02208852 -0.01254004 0.61246 0.02208852 -0.01254004 0.61246 0.02208852 -0.01254004 0.61246 0.02208852 -0.01254004 0.61246 0.02208852 -0.01254004 0.61246 0.02208852 -0.01582509 0.6091749 0.01986759 -0.01582509 0.6091749 0.01986759 -0.01582509 0.6091749 0.01986759 -0.01582509 0.6091749 0.01986759 -1.49937 0.6003699 0.006206095 -1.49937 0.6003699 0.006206095 -1.49937 0.6003699 0.006206095 -1.49937 0.6003699 0.006206095 -1.49937 0.6003699 0.006206095 -0.02382177 0.6011782 0.008813798 -0.02382177 0.6011782 0.008813798 -0.02382177 0.6011782 0.008813798 -0.02382177 0.6011782 0.008813798 -0.02382177 0.6011782 0.008813798 -0.001466751 0.6235331 0.0253576 -0.001466751 0.6235331 0.0253576 -0.001466751 0.6235331 0.0253576 -0.001466751 0.6235331 0.0253576 -1.524049 0.6250492 0.02539992 -1.524049 0.6250492 0.02539992 -1.524049 0.6250492 0.02539992 -1.524049 0.6250492 0.02539992 -1.524049 0.6250492 0.02539992 -1.529429 0.6304287 0.02481305 -1.529429 0.6304287 0.02481305 -1.529429 0.6304287 0.02481305 -1.529429 0.6304287 0.02481305 1.524049 0.6250492 0.02539992 1.524049 0.6250492 0.02539992 1.524049 0.6250492 0.02539992 1.524049 0.6250492 0.02539992 1.529429 0.6304287 0.02481305 1.529429 0.6304287 0.02481305 1.529429 0.6304287 0.02481305 1.529429 0.6304287 0.02481305 1.529429 0.6304287 0.02481305 1.536503 0.6375034 0.02210932 1.536503 0.6375034 0.02210932 1.536503 0.6375034 0.02210932 1.536503 0.6375034 0.02210932 1.536503 0.6375034 0.02210932 -1.536503 0.6375034 0.02210932 -1.536503 0.6375034 0.02210932 -1.536503 0.6375034 0.02210932 -1.536503 0.6375034 0.02210932 -1.536503 0.6375034 0.02210932 -1.536503 0.6375034 0.02210932 -1.541608 0.6426079 0.01830625 -1.541608 0.6426079 0.01830625 -1.541608 0.6426079 0.01830625 -1.541608 0.6426079 0.01830625 1.541608 0.6426079 0.01830625 1.541608 0.6426079 0.01830625 1.541608 0.6426079 0.01830625 1.541608 0.6426079 0.01830625 1.541608 0.6426079 0.01830625 1.545894 0.6468937 0.01287728 1.545894 0.6468937 0.01287728 1.545894 0.6468937 0.01287728 1.545894 0.6468937 0.01287728 -1.545894 0.6468937 0.01287728 -1.545894 0.6468937 0.01287728 -1.545894 0.6468937 0.01287728 -1.545894 0.6468937 0.01287728 1.54772 0.6487202 0.009083747 1.54772 0.6487202 0.009083747 1.54772 0.6487202 0.009083747 1.54772 0.6487202 0.009083747 1.54772 0.6487202 0.009083747 -1.54772 0.6487202 0.009083747 -1.54772 0.6487202 0.009083747 -1.54772 0.6487202 0.009083747 -1.54772 0.6487202 0.009083747 -1.54772 0.6487202 0.009083747 -1.54772 0.6487202 0.009083747 -1.4986 -0.9244 0 1.4986 -0.9244 0 1.4986 -0.9244 0 1.4986 -0.9244 0 0 0.625 0.02539998 0 0.625 0.02539998 0 0.625 0.02539998 0 0.625 0.02539998</float_array>
          <technique_common>
            <accessor source="#base_link-mesh-positions-array" count="671" stride="3">
              <param name="X" type="float"/>
              <param name="Y" type="float"/>
              <param name="Z" type="float"/>
            </accessor>
          </technique_common>
        </source>
        <source id="base_link-mesh-normals">
          <float_array id="base_link-mesh-normals-array" count="630">0 0 1 0 0 -1 0 -1 0 1 0 0 -1 0 0 0.9843441 0 -0.1762579 0.965925 -0.00125873 -0.2588193 0.9037556 2.38725e-5 -0.428049 0.8026564 -3.16828e-5 -0.5964418 0.7071061 -0.001397669 -0.7071061 0.6795389 -9.2166e-4 -0.7336391 0.0239259 -0.004956901 -0.9997015 0.2830742 -6.94528e-5 -0.9590981 0.5600984 2.2415e-5 -0.8284262 0.2588194 0 -0.9659258 -0.2588194 0 -0.9659258 -0.2565995 -4.83424e-5 -0.9665179 -0.9659258 0 -0.2588195 -0.9990556 -0.004755139 -0.04319077 -0.9642543 -6.73222e-4 -0.2649778 -0.882368 9.76556e-6 -0.4705601 -0.7071068 -6.7715e-5 -0.7071068 -0.7352494 -9.42951e-4 -0.6777961 -0.5360521 8.33075e-6 -0.8441851 0 -1 6.66747e-6 0 -1 -6.66747e-6 0 -1 1.57754e-5 0.9833261 0 -0.1818508 0.9007466 -0.001594245 -0.4343423 0.9659258 3.50574e-5 -0.2588194 0.7848705 -1.92176e-5 -0.6196599 0.5966297 -0.001227438 -0.8025158 0.707109 3.89911e-5 -0.7071046 0.3569918 -2.2568e-5 -0.9341076 0.1071463 -0.001308917 -0.9942424 0.258817 -8.0921e-6 -0.9659265 -0.2248498 7.20183e-6 -0.9743934 -0.2588192 -2.50142e-4 -0.9659258 -0.4684916 -2.12734e-6 -0.883468 -0.6620609 1.22974e-5 -0.7494502 -0.7071089 -3.88708e-4 -0.7071045 -0.8331343 -4.95653e-6 -0.5530707 -0.9257147 1.19549e-5 -0.3782229 -0.9659256 -5.4794e-4 -0.2588194 -0.9923916 0 -0.123122 0.9923916 0 -0.123122 0.9659256 -5.4794e-4 -0.2588194 0.9257147 1.19004e-5 -0.3782229 0.7071087 1.59624e-5 -0.7071049 0.6623514 -5.04727e-4 -0.7491932 0.8331344 -4.98834e-6 -0.5530706 -0.2588171 -3.73706e-5 -0.9659264 -0.3562285 -8.97522e-4 -0.9343985 -0.1084356 -3.40141e-6 -0.9941035 0.2588192 8.22933e-6 -0.9659259 0.2251296 -2.87472e-4 -0.9743288 0.4684916 -2.09882e-6 -0.8834681 -0.9659258 0 -0.2588194 -0.9833034 -6.79186e-4 -0.1819722 -0.9010499 1.02825e-5 -0.4337155 -0.7071089 -3.45009e-5 -0.7071047 -0.7844859 -0.001019299 -0.6201459 -0.5974315 1.78979e-5 -0.8019201 -9.19831e-6 -0.597477 -0.8018861 0 0.9923939 -0.123103 0 0.9923931 -0.1231094 0 0.9257332 -0.3781775 0 0.9257288 -0.3781881 0 0.8330807 -0.5531516 0 0.8330604 -0.5531823 0 0.6620543 -0.7494559 0 0.662059 -0.7494518 0 0.2569961 -0.9664125 0.001932561 0.4700734 -0.8826253 -7.29432e-6 0.2248438 -0.9743949 1.90261e-5 -0.2566609 -0.9665015 9.12156e-4 -0.3561835 -0.9344156 3.46547e-6 -0.1084457 -0.9941024 0.001073598 -0.7844808 -0.6201523 -0.001869916 -0.5347075 -0.8450353 6.50821e-6 -0.7356814 -0.6773278 0 -0.999074 -0.04302722 -2.09412e-4 -0.9950942 -0.09893268 6.11102e-4 -0.9643504 -0.264628 0 -0.9950946 -0.09892827 -7.18719e-4 -0.9833499 -0.1817212 0.001208186 -0.9007855 -0.4342629 0 -0.9341607 -0.356853 -5.12736e-6 -0.9343509 -0.3563545 -0.001804351 -0.881944 -0.4713509 -0.001932561 0.4700734 -0.8826253 7.29512e-6 0.2248432 -0.974395 -8.9146e-7 -0.02887892 -0.999583 2.36789e-4 -0.2829231 -0.9591426 -0.001221239 -0.5966827 -0.8024764 0.001353919 -0.8021867 -0.5970717 -0.001292526 -0.107174 -0.9942395 -4.23256e-6 -0.3569712 -0.9341155 2.20095e-6 -0.5600978 -0.8284265 4.10571e-4 -0.6797951 -0.733402 0 -0.9833263 -0.1818498 0.001319587 -0.9950938 -0.09892803 -0.001208186 -0.9007894 -0.4342546 0 -0.9341529 -0.3568732 0 -0.9950946 -0.09892827 -3.20196e-6 -0.7848896 -0.6196357 3.89294e-6 -0.9343 -0.3564879 0.001121938 -0.9035388 -0.4285049 -6.70095e-4 -0.9843638 -0.1761461 0 -0.999074 0.04302722 2.09412e-4 -0.9950942 0.09893268 -6.11102e-4 -0.9643504 0.264628 0.001804351 -0.8819458 0.4713474 0 -0.9950946 0.09892827 2.09207e-4 -0.9923954 0.1230912 -3.48138e-4 -0.9256823 0.3783018 0 -0.9344646 0.356056 -2.93181e-6 -0.9345891 0.3557294 3.91788e-6 -0.7356752 0.6773346 0.001892507 -0.5347154 0.8450302 -0.001778304 -0.8325276 0.5539808 -2.44085e-6 -0.6620506 0.7494592 3.19335e-6 -0.2566386 0.9665075 -0.001936256 -0.4670994 0.8842027 -1.48596e-6 -0.83308 0.5531526 1.0092e-4 -0.8027041 0.5963777 -1.82386e-6 -0.4685778 0.8834223 1.19804e-5 -0.6620447 0.7494644 -8.87774e-4 -0.5594727 0.8288483 -2.26704e-4 -0.6798939 0.7333105 0 -0.9923909 0.1231269 -2.60315e-4 -0.9950954 0.09891986 0 -0.9950946 0.09892827 6.70095e-4 -0.9843638 0.1761461 -0.001121938 -0.9035425 0.4284973 0 -0.9343898 0.3562522 4.16586e-6 -0.9345613 0.3558023 3.48138e-4 -0.9256823 0.3783018 2.03219e-4 -0.2833282 0.9590231 -0.001509189 -0.0273714 0.9996243 -7.30094e-6 -0.2248561 0.9743921 3.46902e-6 0.1084533 0.9941015 7.30094e-6 -0.2248561 0.9743921 -3.469e-6 0.1084529 0.9941017 -9.11591e-4 0.3577793 0.9338058 9.11588e-4 0.357778 0.9338063 0 0.2545098 0.9670702 0 0.5974618 0.8018974 0 0.5974537 0.8019034 0 0.7848961 0.6196274 0 0.7849 0.6196225 0 0.9009938 0.4338319 0 0.9010048 0.4338093 0 0.9833302 0.1818289 0 0.9833264 0.1818497 -0.9833238 0 0.1818633 -0.9659256 -4.62885e-4 0.2588194 -0.901057 1.00741e-5 0.4337008 -0.7071089 3.81855e-5 0.7071048 -0.5981853 -0.001191377 0.801357 -0.7848852 -1.85076e-5 0.6196413 0.2588173 -1.6076e-5 0.9659264 0.466999 -0.001903176 0.8842559 0.2248614 7.09736e-6 0.9743908 -0.2588192 -8.13737e-6 0.9659258 -0.1097142 -0.001287162 0.9939624 -0.3570308 -2.21219e-5 0.9340927 0.9659258 0 0.2588194 0.9923728 -0.001188516 0.1232672 0.9257239 1.21282e-5 0.3782002 0.7071089 -2.20737e-5 0.7071048 0.8325924 -0.001701772 0.5538838 0.6620749 1.25004e-5 0.7494378 -0.9923916 0 0.123122 -0.9255679 -0.001073479 0.37858 -0.9659258 2.28157e-5 0.2588194 -0.8331125 -5.02721e-6 0.5531036 -0.707109 -3.99039e-4 0.7071046 -0.6620749 1.24875e-5 0.7494378 -0.4684863 -2.22628e-6 0.8834708 -0.258817 -2.53728e-4 0.9659264 -0.2248614 7.10128e-6 0.9743909 0.1084449 -3.3876e-6 0.9941025 0.2588195 -5.39126e-4 0.9659256 0.3570308 -2.2117e-5 0.9340927 0.5974086 1.77946e-5 0.8019371 0.7071087 -5.494e-4 0.7071046 0.7848852 -1.84702e-5 0.6196413 0.901057 1.01357e-5 0.4337008 0.9659256 -4.62885e-4 0.2588194 0.9833238 0 0.1818633 0.2588194 0 0.9659258 0.2565995 -4.83424e-5 0.9665179 0.9659258 0 0.2588195 0.9990556 -0.004755139 0.04319077 0.9642543 -6.73222e-4 0.2649778 0.882368 9.76556e-6 0.4705601 0.7071068 -6.7715e-5 0.7071068 0.7352494 -9.42951e-4 0.6777961 0.5360521 8.33075e-6 0.8441851 -0.9843441 0 0.1762579 -0.965925 -0.00125873 0.2588193 -0.5600984 2.24135e-5 0.8284261 -0.679539 -9.21659e-4 0.7336388 -0.7071061 -0.001397669 0.7071061 -0.8026564 -3.16828e-5 0.5964418 -0.9037556 2.38713e-5 0.428049 -0.2588194 0 0.9659258 -0.02392673 -0.004956901 0.9997014 -0.2830742 -6.94528e-5 0.9590981</float_array>
          <technique_common>
            <accessor source="#base_link-mesh-normals-array" count="210" stride="3">
              <param name="X" type="float"/>
              <param name="Y" type="float"/>
              <param name="Z" type="float"/>
            </accessor>
          </technique_common>
        </source>
        <vertices id="base_link-mesh-vertices">
          <input semantic="POSITION" source="#base_link-mesh-positions"/>
        </vertices>
        <triangles material="Material_001-material" count="256">
          <input semantic="VERTEX" source="#base_link-mesh-vertices" offset="0"/>
          <input semantic="NORMAL" source="#base_link-mesh-normals" offset="1"/>
          <p>1 0 7 0 12 0 12 0 7 0 17 0 20 1 23 1 26 1 26 1 23 1 33 1 6 2 22 2 16 2 16 2 22 2 19 2 21 3 28 3 18 3 18 3 28 3 38 3 18 3 38 3 14 3 8 4 5 4 24 4 24 4 5 4 39 4 24 4 39 4 36 4 42 0 47 0 51 0 51 0 47 0 56 0 59 1 62 1 66 1 66 1 62 1 73 1 48 4 45 4 63 4 63 4 45 4 77 4 63 4 77 4 76 4 46 2 61 2 55 2 55 2 61 2 58 2 60 3 68 3 57 3 57 3 68 3 79 3 57 3 79 3 53 3 80 2 86 2 92 2 92 2 86 2 98 2 104 2 109 2 111 2 111 2 109 2 92 2 111 2 92 2 118 2 118 2 92 2 98 2 121 2 126 2 130 2 130 2 126 2 86 2 130 2 86 2 137 2 137 2 86 2 80 2 143 5 147 5 151 5 150 6 146 6 108 6 149 7 107 7 158 7 157 8 106 8 164 8 163 9 105 9 117 9 162 10 116 10 168 10 169 11 175 11 112 11 114 12 176 12 180 12 115 13 181 13 167 13 113 14 119 14 170 14 172 15 120 15 100 15 171 16 99 16 187 16 128 17 189 17 90 17 91 18 191 18 196 18 195 19 200 19 89 19 88 20 199 20 206 20 87 21 204 21 102 21 103 22 205 22 210 22 101 23 209 23 188 23 211 2 216 2 220 2 225 2 231 2 236 2 241 2 246 2 225 2 220 2 251 2 241 2 236 2 256 2 261 2 241 2 225 2 220 2 220 2 225 2 236 2 220 2 236 2 211 2 211 24 236 24 261 24 211 2 261 2 265 2 270 2 275 2 280 2 280 2 284 2 286 2 286 25 284 25 292 25 292 2 297 2 286 2 286 26 297 26 302 26 286 2 302 2 307 2 312 2 270 2 317 2 317 25 270 25 280 25 317 2 280 2 322 2 322 2 280 2 286 2 329 27 334 27 219 27 328 28 217 28 343 28 344 29 218 29 215 29 342 30 214 30 349 30 348 31 212 31 354 31 355 32 213 32 269 32 353 33 268 33 359 33 358 34 266 34 362 34 363 35 267 35 262 35 364 36 263 36 367 36 368 37 264 37 257 37 369 38 258 38 374 38 375 39 259 39 378 39 379 40 260 40 237 40 380 41 238 41 383 41 384 42 239 42 387 42 388 43 240 43 233 43 389 44 235 44 393 44 398 45 326 45 403 45 402 46 324 46 291 46 401 47 290 47 407 47 311 48 412 48 288 48 287 49 411 49 417 49 289 50 418 50 406 50 305 51 298 51 424 51 425 52 430 52 306 52 304 53 429 53 437 53 303 54 435 54 309 54 308 55 434 55 439 55 310 56 440 56 410 56 295 57 285 57 445 57 446 58 452 58 296 58 294 59 451 59 459 59 293 60 457 60 300 60 301 61 458 61 463 61 299 62 462 62 426 62 346 63 350 63 183 63 391 64 396 64 385 64 385 65 396 65 399 65 386 66 400 66 381 66 400 67 404 67 381 67 382 68 405 68 414 68 382 69 414 69 376 69 377 70 415 70 370 70 416 71 408 71 371 71 372 72 409 72 464 72 373 73 470 73 366 73 365 74 466 74 360 74 184 75 351 75 465 75 469 76 352 76 357 76 467 77 356 77 361 77 347 78 185 78 340 78 345 79 186 79 208 79 339 80 207 80 202 80 473 81 475 81 192 81 194 82 476 82 69 82 193 83 67 83 197 83 71 84 478 84 332 84 336 85 330 85 75 85 74 86 327 86 341 86 72 87 338 87 65 87 64 88 337 88 201 88 70 89 203 89 198 89 413 90 441 90 471 90 466 91 438 91 431 91 468 92 432 92 173 92 174 93 433 93 179 93 461 94 159 94 423 94 422 95 156 95 161 95 436 96 428 96 182 96 178 97 427 97 420 97 177 98 419 98 165 98 166 99 421 99 160 99 443 100 480 100 448 100 449 101 481 101 27 101 450 102 29 102 456 102 454 103 25 103 32 103 30 104 483 104 141 104 460 105 455 105 154 105 153 106 453 106 31 106 155 107 34 107 148 107 152 108 35 108 145 108 140 109 482 109 485 109 486 110 484 110 2 110 489 111 4 111 493 111 490 112 3 112 497 112 37 113 442 113 9 113 13 114 444 114 501 114 15 115 502 115 508 115 0 116 11 116 495 116 494 117 10 117 505 117 496 118 506 118 513 118 514 119 507 119 519 119 509 120 524 120 522 120 517 121 523 121 528 121 518 122 529 122 533 122 540 123 530 123 542 123 547 124 554 124 559 124 561 125 555 125 566 125 571 126 578 126 583 126 582 127 577 127 560 127 585 128 565 128 589 128 588 129 564 129 567 129 331 130 477 130 592 130 596 131 479 131 44 131 49 132 78 132 472 132 474 133 597 133 52 133 54 134 598 134 556 134 50 135 553 135 41 135 40 136 552 136 546 136 43 137 548 137 593 137 584 138 602 138 573 138 576 139 603 139 539 139 572 140 535 140 606 140 607 141 536 141 611 141 541 142 615 142 535 142 536 143 616 143 619 143 538 144 623 144 628 144 612 145 537 145 631 145 630 146 534 146 625 146 629 147 624 147 636 147 624 148 640 148 636 148 635 149 639 149 645 149 635 150 645 150 649 150 648 151 644 151 653 151 648 152 653 152 659 152 658 153 652 153 395 153 657 154 394 154 390 154 392 155 234 155 662 155 661 156 232 156 230 156 660 157 229 157 651 157 250 158 634 158 227 158 226 159 633 159 637 159 228 160 638 160 650 160 243 161 252 161 579 161 580 162 575 162 244 162 242 163 574 163 608 163 245 164 610 164 248 164 247 165 609 165 613 165 249 166 614 166 632 166 223 167 663 167 333 167 335 168 595 168 224 168 222 169 594 169 551 169 221 170 549 170 254 170 255 171 550 171 563 171 253 172 562 172 581 172 504 173 447 173 666 173 503 174 664 174 511 174 512 175 665 175 283 175 510 176 282 176 527 176 526 177 281 177 279 177 525 178 278 178 532 178 531 179 277 179 545 179 544 180 276 180 274 180 543 181 273 181 618 181 617 182 271 182 620 182 621 183 272 183 313 183 622 184 314 184 626 184 627 185 315 185 641 185 642 186 316 186 318 186 643 187 319 187 646 187 647 188 320 188 654 188 655 189 321 189 323 189 656 190 325 190 397 190 138 191 82 191 668 191 667 192 81 192 520 192 110 193 142 193 96 193 97 194 144 194 488 194 487 195 492 195 95 195 94 196 491 196 500 196 93 197 498 197 84 197 85 198 499 198 516 198 83 199 515 199 521 199 190 200 129 200 601 200 600 201 127 201 125 201 587 202 590 202 134 202 135 203 591 203 568 203 136 204 569 204 122 204 123 205 570 205 557 205 124 206 558 206 599 206 139 207 670 207 132 207 131 208 669 208 604 208 133 209 605 209 586 209</p>
        </triangles>
      </mesh>
    </geometry>
    <geometry id="Task1_SearchRescue_Fixed_001-mesh" name="Task1_SearchRescue_Fixed.001">
      <mesh>
        <source id="Task1_SearchRescue_Fixed_001-mesh-positions">
          <float_array id="Task1_SearchRescue_Fixed_001-mesh-positions-array" count="12">-0.5 -0.5 0 0.5 -0.5 0 -0.5 0.5 0 0.5 0.5 0</float_array>
          <technique_common>
            <accessor source="#Task1_SearchRescue_Fixed_001-mesh-positions-array" count="4" stride="3">
              <param name="X" type="float"/>
              <param name="Y" type="float"/>
              <param name="Z" type="float"/>
            </accessor>
          </technique_common>
        </source>
        <source id="Task1_SearchRescue_Fixed_001-mesh-normals">
          <float_array id="Task1_SearchRescue_Fixed_001-mesh-normals-array" count="3">0 0 1</float_array>
          <technique_common>
            <accessor source="#Task1_SearchRescue_Fixed_001-mesh-normals-array" count="1" stride="3">
              <param name="X" type="float"/>
              <param name="Y" type="float"/>
              <param name="Z" type="float"/>
            </accessor>
          </technique_common>
        </source>
        <source id="Task1_SearchRescue_Fixed_001-mesh-map-0">
          <float_array id="Task1_SearchRescue_Fixed_001-mesh-map-0-array" count="12">0 0 1 0 1 1 0 0 1 1 0 1</float_array>
          <technique_common>
            <accessor source="#Task1_SearchRescue_Fixed_001-mesh-map-0-array" count="6" stride="2">
              <param name="S" type="float"/>
              <param name="T" type="float"/>
            </accessor>
          </technique_common>
        </source>
        <vertices id="Task1_SearchRescue_Fixed_001-mesh-vertices">
          <input semantic="POSITION" source="#Task1_SearchRescue_Fixed_001-mesh-positions"/>
        </vertices>
        <triangles material="Task1_SearchRescue_Fixed-material" count="2">
          <input semantic="VERTEX" source="#Task1_SearchRescue_Fixed_001-mesh-vertices" offset="0"/>
          <input semantic="NORMAL" source="#Task1_SearchRescue_Fixed_001-mesh-normals" offset="1"/>
          <input semantic="TEXCOORD" source="#Task1_SearchRescue_Fixed_001-mesh-map-0" offset="2" set="0"/>
          <p>0 0 0 1 0 1 3 0 2 0 0 3 3 0 4 2 0 5</p>
        </triangles>
      </mesh>
    </geometry>
    <geometry id="Task1_SurveyRepair_Fixed_001-mesh" name="Task1_SurveyRepair_Fixed.001">
      <mesh>
        <source id="Task1_SurveyRepair_Fixed_001-mesh-positions">
          <float_array id="Task1_SurveyRepair_Fixed_001-mesh-positions-array" count="12">-0.5 -0.5 0 0.5 -0.5 0 -0.5 0.5 0 0.5 0.5 0</float_array>
          <technique_common>
            <accessor source="#Task1_SurveyRepair_Fixed_001-mesh-positions-array" count="4" stride="3">
              <param name="X" type="float"/>
              <param name="Y" type="float"/>
              <param name="Z" type="float"/>
            </accessor>
          </technique_common>
        </source>
        <source id="Task1_SurveyRepair_Fixed_001-mesh-normals">
          <float_array id="Task1_SurveyRepair_Fixed_001-mesh-normals-array" count="3">0 0 1</float_array>
          <technique_common>
            <accessor source="#Task1_SurveyRepair_Fixed_001-mesh-normals-array" count="1" stride="3">
              <param name="X" type="float"/>
              <param name="Y" type="float"/>
              <param name="Z" type="float"/>
            </accessor>
          </technique_common>
        </source>
        <source id="Task1_SurveyRepair_Fixed_001-mesh-map-0">
          <float_array id="Task1_SurveyRepair_Fixed_001-mesh-map-0-array" count="12">0 0 1 0 1 1 0 0 1 1 0 1</float_array>
          <technique_common>
            <accessor source="#Task1_SurveyRepair_Fixed_001-mesh-map-0-array" count="6" stride="2">
              <param name="S" type="float"/>
              <param name="T" type="float"/>
            </accessor>
          </technique_common>
        </source>
        <vertices id="Task1_SurveyRepair_Fixed_001-mesh-vertices">
          <input semantic="POSITION" source="#Task1_SurveyRepair_Fixed_001-mesh-positions"/>
        </vertices>
        <triangles material="Task1_SurveyRepair_Fixed-material" count="2">
          <input semantic="VERTEX" source="#Task1_SurveyRepair_Fixed_001-mesh-vertices" offset="0"/>
          <input semantic="NORMAL" source="#Task1_SurveyRepair_Fixed_001-mesh-normals" offset="1"/>
          <input semantic="TEXCOORD" source="#Task1_SurveyRepair_Fixed_001-mesh-map-0" offset="2" set="0"/>
          <p>0 0 0 1 0 1 3 0 2 0 0 3 3 0 4 2 0 5</p>
        </triangles>
      </mesh>
    </geometry>
  </library_geometries>
  <library_visual_scenes>
    <visual_scene id="Scene" name="Scene">
      <node id="base_link" name="base_link" type="NODE">
        <matrix sid="transform">4.37114e-8 1.19249e-8 1 -0.01347463 1 -8.74228e-8 -4.37114e-8 0.2974064 8.74228e-8 1 -1.19249e-8 -0.2838511 0 0 0 1</matrix>
        <instance_geometry url="#base_link-mesh" name="base_link">
          <bind_material>
            <technique_common>
              <instance_material symbol="Material_001-material" target="#Material_001-material"/>
            </technique_common>
          </bind_material>
        </instance_geometry>
      </node>
      <node id="Task1_SearchRescue_Fixed" name="Task1_SearchRescue_Fixed" type="NODE">
        <matrix sid="transform">0.001011641 0.001851774 0.3039313 -7.96756e-4 0.3038619 -0.006760935 -9.70217e-4 -0.4615098 0.006754859 0.3038579 -0.001873809 0.163034 0 0 0 1</matrix>
        <instance_geometry url="#Task1_SearchRescue_Fixed_001-mesh" name="Task1_SearchRescue_Fixed">
          <bind_material>
            <technique_common>
              <instance_material symbol="Task1_SearchRescue_Fixed-material" target="#Task1_SearchRescue_Fixed-material">
                <bind_vertex_input semantic="Task1_SearchRescue_Fixed_001-mesh-map-0" input_semantic="TEXCOORD" input_set="0"/>
              </instance_material>
            </technique_common>
          </bind_material>
        </instance_geometry>
      </node>
      <node id="Task1_SurveyRepair_Fixed" name="Task1_SurveyRepair_Fixed" type="NODE">
        <matrix sid="transform">0.001006547 0.001842521 0.302401 -0.006893165 0.3023319 -0.00672689 -9.6533e-4 1.057963 0.006720847 0.3023278 -0.001864447 0.1716624 0 0 0 1</matrix>
        <instance_geometry url="#Task1_SurveyRepair_Fixed_001-mesh" name="Task1_SurveyRepair_Fixed">
          <bind_material>
            <technique_common>
              <instance_material symbol="Task1_SurveyRepair_Fixed-material" target="#Task1_SurveyRepair_Fixed-material">
                <bind_vertex_input semantic="Task1_SurveyRepair_Fixed_001-mesh-map-0" input_semantic="TEXCOORD" input_set="0"/>
              </instance_material>
            </technique_common>
          </bind_material>
        </instance_geometry>
      </node>
    </visual_scene>
  </library_visual_scenes>
  <scene>
    <instance_visual_scene url="#Scene"/>
  </scene>
</COLLADA>